M48
; DRILL file {KiCad (5.1.7)-1} date 02/05/21 23:53:16
; FORMAT={-:-/ absolute / inch / decimal}
; #@! TF.CreationDate,2021-02-05T23:53:16+09:00
; #@! TF.GenerationSoftware,Kicad,Pcbnew,(5.1.7)-1
FMAT,2
INCH
T1C0.0118
T2C0.0236
T3C0.0315
T4C0.0354
T5C0.0370
T6C0.0394
T7C0.0512
T8C0.0700
T9C0.0394
T10C0.1260
%
G90
G05
T1
X2.339Y-2.6772
X2.3398Y-1.8504
X2.3398Y-2.8543
X2.3866Y-1.9138
X2.3866Y-2.615
X2.4236Y-2.5764
X2.424Y-1.9465
X2.4606Y-1.7717
X2.4606Y-2.0669
X2.4606Y-2.2638
X2.4606Y-3.0512
X2.4606Y-3.248
X2.4606Y-3.4449
X2.4606Y-3.6417
X2.4606Y-3.8386
X2.4606Y-4.0354
X2.4606Y-4.2323
X2.4606Y-4.4291
X2.4606Y-4.626
X2.4606Y-4.8228
X2.4606Y-5.0197
X2.4606Y-5.2165
X2.4606Y-5.4134
X2.4606Y-5.6102
X2.5213Y-2.615
X2.576Y-2.5764
X2.6094Y-2.6031
X2.6094Y-2.6772
X2.6157Y-2.9697
X2.6378Y-1.5567
X2.6378Y-1.9138
X2.6575Y-3.0512
X2.6575Y-3.248
X2.6575Y-3.4449
X2.6575Y-3.6417
X2.6575Y-3.8386
X2.6575Y-4.0354
X2.6575Y-4.2323
X2.6575Y-4.4291
X2.6575Y-4.626
X2.6575Y-4.8228
X2.6575Y-5.0197
X2.6575Y-5.2165
X2.6575Y-5.4134
X2.6575Y-5.6102
X2.6772Y-1.8504
X2.6772Y-2.2402
X2.7071Y-2.7559
X2.7205Y-2.7126
X2.724Y-1.6567
X2.724Y-1.9465
X2.7559Y-2.5524
X2.7559Y-3.0413
X2.7559Y-4.6634
X2.7791Y-2.6031
X2.7791Y-2.928
X2.8122Y-3.0705
X2.8465Y-2.3799
X2.8465Y-2.5047
X2.8543Y-1.9685
X2.8543Y-2.1654
X2.8543Y-2.6031
X2.8543Y-3.4449
X2.8543Y-3.6417
X2.8543Y-3.8386
X2.8543Y-4.0354
X2.8543Y-4.626
X2.8543Y-4.8228
X2.8543Y-5.0197
X2.8543Y-5.2165
X2.9134Y-1.9335
X2.9134Y-2.2362
X2.935Y-3.2425
X2.9354Y-5.4516
X3.0Y-2.3815
X3.0Y-2.5512
X3.0118Y-2.6161
X3.0311Y-2.4173
X3.0311Y-2.5787
X3.0488Y-3.2433
X3.0488Y-5.452
X3.0512Y-1.5748
X3.0512Y-1.7717
X3.0512Y-1.9685
X3.0512Y-2.6575
X3.0512Y-3.4449
X3.0512Y-3.6417
X3.0512Y-3.8386
X3.0512Y-4.0354
X3.0512Y-4.626
X3.0512Y-4.8228
X3.0512Y-5.0197
X3.0512Y-5.2165
X3.0709Y-2.9331
X3.1945Y-3.4394
X3.2087Y-2.3031
X3.2087Y-2.6969
X3.2087Y-2.8346
X3.2087Y-2.9331
X3.248Y-1.9685
X3.248Y-2.2638
X3.248Y-2.6575
X3.248Y-3.248
X3.2547Y-2.9697
X3.2823Y-2.9972
X3.2945Y-3.4646
X3.3465Y-2.8228
X3.3945Y-3.489
X3.4055Y-2.6969
X3.4059Y-3.0705
X3.4449Y-1.5748
X3.4449Y-1.7717
X3.4449Y-1.9685
X3.4449Y-2.2638
X3.4449Y-2.6575
X3.4449Y-3.248
X3.4945Y-3.5138
X3.5488Y-2.5197
X3.563Y-2.8539
X3.6417Y-1.5748
X3.6417Y-1.7717
X3.6417Y-1.9685
X3.6417Y-2.2638
X3.6417Y-2.4606
X3.6417Y-3.248
X3.6417Y-3.6417
X3.6417Y-3.8386
X3.6417Y-4.0354
X3.6417Y-4.626
X3.6417Y-4.8228
X3.6417Y-5.0197
X3.6417Y-5.2165
X3.6417Y-5.4134
X3.6945Y-3.652
X3.7945Y-3.3157
X3.7945Y-5.0524
X3.8386Y-1.5748
X3.8386Y-1.9685
X3.8386Y-2.2638
X3.8386Y-2.4606
X3.8386Y-2.6575
X3.8386Y-3.8386
X3.8386Y-4.0354
X3.8386Y-4.626
X3.8386Y-4.8228
X3.8386Y-5.0197
X3.8945Y-3.2913
X3.8945Y-5.076
X3.9528Y-2.5197
X3.9563Y-3.0409
X3.9945Y-3.2677
X3.9945Y-5.0996
X4.0354Y-1.5748
X4.0354Y-1.7717
X4.0354Y-2.4606
X4.0354Y-2.6575
X4.0354Y-3.8386
X4.0354Y-4.0354
X4.0354Y-4.626
X4.0354Y-4.8228
X4.0354Y-5.0197
X4.0945Y-3.6756
X4.0945Y-5.1232
X4.1181Y-3.3406
X4.1189Y-5.1469
X4.126Y-3.0705
X4.1425Y-3.3654
X4.1427Y-5.1705
X4.1665Y-3.3902
X4.1668Y-5.1941
X4.1906Y-3.4146
X4.1908Y-5.2177
X4.1929Y-1.9335
X4.1945Y-5.3126
X4.226Y-3.5598
X4.226Y-5.2413
X4.2323Y-2.4606
X4.2496Y-3.5836
X4.2499Y-5.265
X4.2736Y-3.6072
X4.2736Y-5.2886
X4.2945Y-5.337
X4.315Y-3.9016
X4.3386Y-3.7469
X4.35Y-2.7346
X4.3622Y-3.7229
X4.3858Y-3.6992
X4.3945Y-5.1469
X4.4094Y-3.6756
X4.4291Y-1.7717
X4.4291Y-2.4606
X4.4291Y-2.6575
X4.4291Y-4.2323
X4.4291Y-4.4291
X4.4291Y-4.626
X4.4291Y-4.8228
X4.4331Y-3.652
X4.4567Y-3.6308
X4.4646Y-5.0287
X4.4803Y-3.6072
X4.4884Y-5.005
X4.4945Y-5.1705
X4.5039Y-3.5836
X4.5059Y-4.2657
X4.5059Y-4.313
X4.5079Y-4.9803
X4.5276Y-3.5599
X4.5512Y-3.5373
X4.5945Y-5.1941
X4.626Y-1.7717
X4.626Y-1.9685
X4.626Y-2.2638
X4.626Y-2.4606
X4.626Y-2.6575
X4.626Y-3.937
X4.626Y-4.8228
X4.6646Y-4.4902
X4.685Y-1.5748
X4.6945Y-5.2177
X4.6949Y-3.7945
X4.6972Y-3.0705
X4.7047Y-4.0157
X4.7047Y-4.2913
X4.7217Y-3.8331
X4.7311Y-1.6142
X4.7311Y-2.2067
X4.7323Y-2.911
X4.75Y-3.5609
X4.7697Y-3.5136
X4.7728Y-1.9059
X4.7728Y-2.5197
X4.7894Y-3.4889
X4.7945Y-5.2413
X4.8Y-1.8504
X4.8091Y-3.4643
X4.8228Y-1.5748
X4.8228Y-1.7717
X4.8228Y-4.8228
X4.8236Y-1.8784
X4.8287Y-3.4394
X4.8484Y-3.4146
X4.8583Y-4.6634
X4.8681Y-3.3899
X4.8878Y-3.3654
X4.8945Y-5.265
X4.9075Y-3.3405
X4.9154Y-4.5102
X4.9213Y-1.3976
X4.9272Y-3.3159
X4.9382Y-4.4843
X4.9469Y-3.2913
X4.9705Y-3.2677
X4.9803Y-4.0157
X4.9803Y-4.2913
X4.9941Y-3.537
X4.9945Y-5.2886
X5.0Y-1.6811
X5.0179Y-3.5609
X5.0197Y-2.1654
X5.0197Y-3.7992
X5.0197Y-5.2165
X5.0417Y-3.6307
X5.0425Y-2.7346
X5.0654Y-2.8539
X5.0654Y-3.7469
X5.0709Y-5.0524
X5.0945Y-5.0287
X5.1083Y-3.7992
X5.1177Y-3.0705
X5.1181Y-5.076
X5.1417Y-5.0996
X5.1575Y-4.685
X5.1579Y-3.9965
X5.1654Y-5.1232
X5.1791Y-4.25
X5.1791Y-4.2972
X5.1945Y-5.0051
X5.1969Y-3.7992
X5.1976Y-4.0134
X5.2008Y-4.7717
X5.2008Y-4.8091
X5.2008Y-4.8465
X5.2008Y-4.8819
X5.2165Y-1.3976
X5.2165Y-1.5748
X5.2165Y-1.7717
X5.2165Y-1.9685
X5.2165Y-2.1654
X5.2165Y-2.5591
X5.2165Y-3.1496
X5.2165Y-3.3465
X5.2165Y-3.5433
X5.2461Y-5.1181
X5.2461Y-5.4724
X5.25Y-2.9976
X5.2756Y-4.3307
X5.2756Y-4.5472
X5.2756Y-4.685
X5.276Y-2.9701
X5.2933Y-4.187
X5.2933Y-4.2283
X5.2933Y-4.2717
X5.2943Y-4.9803
X5.2953Y-4.0768
X5.3179Y-5.3126
X5.3248Y-4.0453
X5.3386Y-2.2067
X5.3417Y-5.337
X5.3543Y-4.0157
X5.374Y-4.8819
X5.374Y-5.6299
X5.4035Y-4.8465
X5.4035Y-5.6024
X5.4134Y-2.7559
X5.4134Y-2.9528
X5.4134Y-3.1496
X5.4134Y-3.3465
X5.4134Y-3.5433
X5.4134Y-3.7992
X5.4134Y-4.1142
X5.4134Y-4.3307
X5.4134Y-4.5472
X5.4134Y-4.685
X5.4331Y-4.8091
X5.4331Y-5.5709
X5.4626Y-4.7717
X5.4626Y-5.5413
X5.472Y-4.4807
X5.4724Y-3.0705
X5.4724Y-3.8705
X5.4724Y-3.9563
X5.4724Y-4.1531
X5.4724Y-4.3291
X5.4724Y-4.385
X5.4724Y-4.4276
X5.5118Y-1.3976
X5.5118Y-2.4606
X5.6102Y-2.9528
X5.6102Y-3.1496
X5.6102Y-3.3465
X5.6102Y-3.5433
X5.6102Y-3.7795
X5.6102Y-3.937
X5.6102Y-4.1339
X5.6102Y-4.3701
X5.6102Y-4.4882
X5.6102Y-4.6457
X5.6102Y-4.8031
X5.6102Y-4.9606
X5.6102Y-5.1181
X5.6102Y-5.315
X5.6102Y-5.4724
X5.6496Y-4.187
X5.7079Y-4.452
X5.7091Y-5.4035
X5.7596Y-4.5663
X5.7917Y-4.5378
X5.7917Y-4.8819
X5.8071Y-1.3976
X5.8071Y-1.5748
X5.8071Y-1.7717
X5.8071Y-1.9685
X5.8071Y-2.5591
X5.8071Y-2.9528
X5.8071Y-3.3465
X5.8071Y-3.5433
X5.8071Y-3.7795
X5.8071Y-3.937
X5.8071Y-4.1339
X5.8071Y-4.9606
X5.8071Y-5.1181
X5.8071Y-5.315
X5.8091Y-2.2067
X5.8417Y-4.3291
X5.8465Y-4.8031
X5.9055Y-3.3071
X5.9063Y-5.2657
X5.9252Y-4.2717
X5.9547Y-4.2283
X5.9646Y-4.9606
X5.9646Y-5.1181
X5.9646Y-5.315
X6.0039Y-1.3976
X6.0039Y-1.5669
X6.0039Y-1.7717
X6.0039Y-2.5591
X6.0039Y-2.9528
X6.0039Y-3.1496
X6.0039Y-3.3465
X6.0039Y-3.5433
X6.0039Y-3.7795
X6.0039Y-3.937
X6.0039Y-4.1339
X6.0236Y-5.0984
X6.063Y-4.187
X6.0634Y-4.3307
X6.1614Y-3.7795
X6.1614Y-3.937
X6.2008Y-1.3976
X6.2008Y-1.5748
X6.2008Y-1.7717
X6.2008Y-1.9685
X6.2008Y-2.5591
X6.2008Y-2.7559
X6.2008Y-2.9528
X6.2008Y-3.1496
X6.2008Y-4.7244
X6.2008Y-4.9213
X6.2008Y-5.4724
X6.2008Y-5.7087
X6.2205Y-3.3071
X6.2598Y-3.9016
X6.2598Y-4.8283
X6.2992Y-3.5378
X6.2992Y-4.0157
X6.2992Y-4.0768
X6.2992Y-4.7783
X6.3386Y-3.5882
X6.3386Y-3.6992
X6.3386Y-4.0453
X6.3386Y-4.1677
X6.378Y-3.7228
X6.378Y-4.2177
X6.3878Y-5.7874
X6.3976Y-1.3976
X6.3976Y-1.5748
X6.3976Y-1.7717
X6.3976Y-1.9685
X6.3976Y-2.5591
X6.3976Y-2.9528
X6.3976Y-3.1496
X6.3976Y-3.3465
X6.3976Y-4.3307
X6.3976Y-4.5276
X6.3976Y-4.7244
X6.3976Y-4.9213
X6.3976Y-5.4724
X6.4055Y-2.911
X6.4957Y-4.1677
X6.4957Y-4.7783
X6.4965Y-3.5378
X6.5945Y-1.3976
X6.5945Y-1.5748
X6.5945Y-1.7717
X6.5945Y-1.9685
X6.5945Y-2.9528
X6.5945Y-3.1496
X6.5945Y-3.3465
X6.5945Y-3.7402
X6.5945Y-3.937
X6.5945Y-4.1339
X6.5945Y-4.3307
X6.5945Y-4.5276
X6.5945Y-4.7244
X6.5945Y-4.9213
X6.5945Y-5.4724
X6.6043Y-5.6299
X6.6043Y-5.7874
X6.7181Y-2.1673
X6.7181Y-2.437
X6.7323Y-3.5882
X6.7323Y-4.2177
X6.7323Y-4.8283
X6.7913Y-1.3976
X6.7913Y-1.5748
X6.7913Y-1.7717
X6.7913Y-1.9685
X6.7913Y-2.9528
X6.7913Y-3.1496
X6.7913Y-3.3465
X6.7913Y-3.7402
X6.7913Y-3.937
X6.7913Y-4.1339
X6.7913Y-4.3307
X6.7913Y-4.5276
X6.7913Y-4.7244
X6.7913Y-4.9213
X6.7913Y-5.4724
X6.7913Y-5.7087
X6.8031Y-2.2362
X6.8031Y-2.7953
X6.939Y-5.7874
X6.9882Y-2.9528
X6.9882Y-3.1496
X6.9882Y-3.7402
X6.9882Y-3.8976
X6.9882Y-4.3307
X6.9882Y-4.4291
X6.9882Y-4.9213
X6.9882Y-5.4724
X7.087Y-4.7783
X7.087Y-4.8283
X7.0898Y-4.1681
X7.0902Y-4.2177
X7.0906Y-3.5378
X7.0906Y-3.5882
X7.1457Y-3.7402
X7.1457Y-3.8189
X7.1555Y-5.6024
X7.1555Y-5.7874
X7.185Y-1.3976
X7.185Y-1.6732
X7.185Y-1.8701
X7.185Y-4.3307
X7.185Y-4.9213
X7.185Y-5.4724
X7.2835Y-5.7087
X7.3031Y-3.4252
X7.3031Y-3.7008
X7.3819Y-1.3976
X7.3819Y-1.6732
X7.3819Y-2.0669
X7.3819Y-2.2638
X7.3819Y-2.4606
X7.3819Y-3.3465
X7.3819Y-3.4252
X7.3819Y-3.7008
X7.3819Y-3.8189
X7.3819Y-4.9213
X7.3819Y-5.4724
X7.4191Y-3.588
X7.4191Y-3.7837
X7.4193Y-4.2185
X7.4193Y-4.4134
X7.4193Y-4.8287
X7.4193Y-5.0236
X7.4803Y-2.6181
X7.4803Y-2.7559
X7.4902Y-5.7874
X7.5787Y-1.3976
X7.5787Y-1.6732
X7.5787Y-1.8701
X7.5787Y-2.0669
X7.5787Y-2.4606
X7.5787Y-5.4724
X7.6139Y-4.9011
X7.6161Y-3.4878
X7.6161Y-4.1177
X7.6161Y-4.7283
X7.6164Y-3.6609
X7.6168Y-4.2908
X7.6772Y-2.6181
X7.6772Y-2.7559
X7.7067Y-5.5709
X7.7067Y-5.7874
X7.7756Y-5.4724
X7.7854Y-3.2878
X7.7854Y-3.7839
X7.7854Y-3.9173
X7.7854Y-4.4134
X7.7854Y-4.5276
X7.7854Y-5.0236
X7.874Y-1.3976
X7.874Y-1.6732
X7.874Y-1.8701
X7.874Y-2.0669
X7.874Y-2.2638
X7.874Y-2.4606
X7.874Y-2.6181
X7.874Y-2.7559
X7.874Y-3.3894
X7.874Y-3.5378
X7.874Y-4.0197
X7.874Y-4.1673
X7.874Y-5.7087
X7.876Y-4.6299
X7.876Y-4.7776
X7.9724Y-5.4724
X8.0315Y-3.6024
X8.0315Y-4.2323
X8.0413Y-5.7874
X8.065Y-4.8287
X8.0709Y-2.6181
X8.0709Y-2.7559
X8.0709Y-2.9528
X8.0709Y-3.248
X8.0709Y-3.8386
X8.0709Y-4.5276
X8.1102Y-5.0394
X8.1693Y-1.3976
X8.1693Y-1.6732
X8.1693Y-1.8701
X8.1693Y-2.0669
X8.1693Y-2.2638
X8.1693Y-2.4606
X8.1693Y-5.4724
X8.2283Y-4.9213
X8.2579Y-5.5413
X8.2579Y-5.7874
X8.2677Y-2.6181
X8.2677Y-2.7559
X8.2677Y-3.248
X8.2677Y-3.8386
X8.2677Y-4.5276
X8.3661Y-1.3976
X8.3661Y-1.6732
X8.3661Y-1.8701
X8.3661Y-2.0669
X8.3661Y-2.2638
X8.3661Y-2.4606
X8.4646Y-2.6181
X8.4646Y-2.7559
X8.4646Y-2.9528
X8.4646Y-3.248
X8.4646Y-3.8386
X8.4646Y-3.937
X8.4646Y-4.3307
X8.4646Y-4.5276
X8.4646Y-4.9213
X8.4646Y-5.5118
X8.4646Y-5.7087
X8.563Y-1.4764
X8.563Y-2.0669
X8.563Y-2.2638
X8.563Y-2.4606
X8.6614Y-2.6181
X8.6614Y-2.7559
X8.6614Y-2.9528
X8.6614Y-3.1496
X8.6614Y-3.3465
X8.6614Y-3.5433
X8.6614Y-3.937
X8.6614Y-4.1339
X8.6614Y-4.3307
X8.6614Y-4.5276
X8.6614Y-4.7244
X8.6614Y-4.9213
X8.6614Y-5.5118
X8.6614Y-5.7087
X8.878Y-1.6535
X8.8976Y-5.6693
X8.9173Y-4.1969
X8.9764Y-1.6535
X9.0551Y-1.7717
X9.0551Y-1.9685
X9.0551Y-2.1654
X9.0551Y-2.3622
X9.0551Y-2.5591
X9.1181Y-4.1969
X9.1185Y-4.5768
T2
X8.2894Y-3.685
X8.2894Y-4.315
X8.2894Y-4.9252
X8.3839Y-3.4449
X8.3839Y-4.074
X8.3839Y-4.6854
X8.5236Y-3.1299
X8.7693Y-3.8972
X8.7693Y-4.4091
X8.7693Y-4.8524
X8.8409Y-4.7146
X8.8413Y-3.7795
X9.1929Y-3.1299
X9.1933Y-3.8972
T3
X4.6874Y-4.7441
X4.8796Y-4.7441
T4
X7.2835Y-2.126
X7.4803Y-2.126
X3.189Y-1.5354
X3.189Y-1.6354
X3.289Y-1.5354
X3.289Y-1.6354
X3.389Y-1.5354
X3.389Y-1.6354
T5
X4.1929Y-1.4961
X6.4961Y-4.685
X9.1929Y-3.1299
X4.1929Y-1.752
X6.4961Y-3.4449
X2.3819Y-3.3071
X9.1929Y-1.8504
X3.7795Y-1.752
X3.7795Y-1.4961
X4.6063Y-1.4961
X6.7323Y-4.685
X6.1417Y-4.1535
X8.6811Y-5.7874
X9.1929Y-3.4252
X9.1929Y-2.8346
X9.1929Y-2.0866
X6.7323Y-3.4449
X9.1929Y-2.3228
X9.1929Y-3.7205
X6.7323Y-4.0748
X9.1929Y-2.5591
X6.1417Y-4.626
X6.1417Y-4.3898
X9.1929Y-4.0157
X2.3819Y-3.7008
X6.4961Y-4.0748
T6
X8.9961Y-4.439
X8.9961Y-4.5768
X8.9961Y-4.7146
X8.9961Y-4.8524
X8.9961Y-4.9902
X8.9961Y-5.128
X8.9961Y-5.2657
X8.9961Y-5.4035
X2.7953Y-1.4567
X2.7953Y-1.5567
X2.7953Y-1.6567
X2.7953Y-1.7567
X2.8945Y-3.1496
X2.8945Y-5.5512
X2.9945Y-3.1496
X2.9945Y-5.5512
X3.0945Y-3.1496
X3.0945Y-5.5512
X3.1945Y-3.1496
X3.1945Y-5.5512
X3.2945Y-3.1496
X3.2945Y-5.5512
X3.3945Y-3.1496
X3.3945Y-5.5512
X3.4945Y-3.1496
X3.4945Y-5.5512
X3.5945Y-3.1496
X3.5945Y-5.5512
X3.6945Y-3.1496
X3.6945Y-5.5512
X3.7945Y-3.1496
X3.7945Y-5.5512
X3.8945Y-3.1496
X3.8945Y-5.5512
X3.9945Y-3.1496
X3.9945Y-5.5512
X4.0945Y-3.1496
X4.0945Y-5.5512
X4.1945Y-3.1496
X4.1945Y-5.5512
X4.2945Y-3.1496
X4.2945Y-5.5512
X4.3945Y-3.1496
X4.3945Y-5.5512
X4.4945Y-3.1496
X4.4945Y-5.5512
X4.5945Y-3.1496
X4.5945Y-5.5512
X4.6945Y-3.1496
X4.6945Y-5.5512
X4.7945Y-3.1496
X4.7945Y-5.5512
X4.8945Y-5.5512
X4.9945Y-5.5512
X5.0945Y-5.5512
X5.1945Y-5.5512
X5.2945Y-5.5512
T7
X6.9094Y-2.3425
X6.9094Y-2.5394
X5.6299Y-2.3819
X5.7677Y-2.3819
T8
X8.0315Y-2.3228
X8.8583Y-2.3228
T9
X2.4803Y-2.2165
X2.4803Y-2.3898
T10
X6.9094Y-1.811
X2.4803Y-1.5354
X5.748Y-5.7874
X2.4803Y-5.7874
X9.0945Y-5.7874
X9.0945Y-1.5354
X5.748Y-3.1496
T6
G00X8.5551Y-1.7224
M15
G01X8.5551Y-1.8209
M16
G05
G00X8.6909Y-1.6535
M15
G01X8.7894Y-1.6535
M16
G05
G00X8.6909Y-1.8898
M15
G01X8.7894Y-1.8898
M16
G05
G00X7.7559Y-1.5846
M15
G01X7.7559Y-1.8012
M16
G05
G00X8.0315Y-1.5846
M15
G01X8.0315Y-1.8012
M16
G05
T0
M30
