M48
; DRILL file {KiCad (5.1.7)-1} date 11/10/20 11:57:11
; FORMAT={-:-/ absolute / inch / decimal}
; #@! TF.CreationDate,2020-11-10T11:57:11+09:00
; #@! TF.GenerationSoftware,Kicad,Pcbnew,(5.1.7)-1
FMAT,2
INCH
T1C0.0118
T2C0.0236
T3C0.0315
T4C0.0354
T5C0.0370
T6C0.0394
T7C0.0433
T8C0.0449
T9C0.0512
T10C0.0591
T11C0.0630
T12C0.0700
T13C0.0394
T14C0.1260
%
G90
G05
T1
X2.4803Y-1.9488
X2.4803Y-2.1654
X2.4803Y-2.2638
X2.4803Y-2.3425
X2.4803Y-2.5394
X2.4803Y-2.6969
X2.5394Y-1.437
X2.5394Y-2.0669
X2.5787Y-3.3465
X2.5984Y-1.7717
X2.5984Y-2.0669
X2.6004Y-1.9488
X2.6181Y-2.2638
X2.6614Y-1.6378
X2.6772Y-1.437
X2.7244Y-2.5276
X2.7559Y-1.9055
X2.7756Y-1.9882
X2.7756Y-2.0669
X2.7756Y-2.3031
X2.7756Y-2.4409
X2.7756Y-2.5787
X2.7756Y-2.6969
X2.7756Y-2.8346
X2.8031Y-2.1811
X2.815Y-1.437
X2.8543Y-1.6732
X2.8543Y-1.7717
X2.8543Y-3.9567
X2.8543Y-4.2323
X2.8543Y-4.5079
X2.8563Y-4.7618
X2.874Y-3.3465
X2.8937Y-2.9921
X2.9331Y-3.2677
X2.9331Y-3.7402
X2.9331Y-3.9961
X2.9331Y-4.2717
X2.9331Y-4.5079
X2.9331Y-4.8031
X2.9331Y-5.1575
X2.9449Y-2.1811
X2.9528Y-1.7717
X2.9528Y-2.0669
X2.9724Y-2.3031
X2.9724Y-2.4409
X2.9724Y-2.5787
X2.9724Y-2.6969
X2.9724Y-2.9921
X2.9843Y-1.7323
X3.0354Y-3.6024
X3.0709Y-2.2146
X3.0866Y-1.1811
X3.0906Y-2.3031
X3.1102Y-2.6378
X3.1102Y-2.7756
X3.1102Y-2.9921
X3.126Y-2.1811
X3.1299Y-2.2677
X3.1496Y-1.378
X3.1496Y-1.7717
X3.1496Y-1.8701
X3.1496Y-2.0669
X3.2283Y-2.6378
X3.2283Y-2.7756
X3.2283Y-2.874
X3.2283Y-2.9921
X3.248Y-2.0669
X3.2756Y-1.4488
X3.2913Y-2.3465
X3.3465Y-1.7717
X3.3465Y-1.8701
X3.3465Y-2.7756
X3.3465Y-2.874
X3.3465Y-2.9921
X3.3661Y-3.2087
X3.3661Y-3.3268
X3.3661Y-3.4646
X3.3661Y-3.6417
X3.4094Y-2.4567
X3.4094Y-2.5827
X3.4252Y-3.7205
X3.4547Y-1.939
X3.4646Y-2.6772
X3.4646Y-2.7756
X3.4646Y-2.874
X3.4646Y-3.2087
X3.4646Y-3.3268
X3.4646Y-3.4646
X3.4724Y-1.4488
X3.5512Y-2.0079
X3.5531Y-1.8996
X3.5531Y-2.9035
X3.563Y-3.2087
X3.563Y-3.3268
X3.5827Y-3.7008
X3.5925Y-2.0374
X3.5925Y-2.8642
X3.6024Y-3.6417
X3.622Y-1.4488
X3.6319Y-1.939
X3.6319Y-2.8248
X3.6713Y-1.8996
X3.6713Y-2.7953
X3.7008Y-2.9724
X3.7008Y-3.0906
X3.7008Y-3.2087
X3.7106Y-2.7559
X3.748Y-1.7244
X3.7598Y-3.5827
X3.7795Y-3.4646
X3.7992Y-3.5827
X3.8189Y-1.4488
X3.8386Y-3.4646
X3.8386Y-3.6024
X3.8484Y-2.7264
X3.8583Y-3.1496
X3.8583Y-3.3071
X3.8583Y-3.3858
X3.878Y-3.622
X3.8976Y-1.7717
X3.8976Y-1.8898
X3.8976Y-2.0276
X3.8976Y-2.1654
X3.8976Y-2.3622
X3.8976Y-2.4803
X3.8976Y-2.5984
X3.8976Y-3.6614
X3.937Y-3.1496
X3.937Y-3.3858
X3.937Y-3.4449
X3.937Y-3.7598
X3.937Y-3.8583
X3.937Y-3.9567
X3.937Y-4.0551
X3.937Y-4.1535
X3.9469Y-2.7067
X3.9862Y-2.9035
X3.9862Y-3.7106
X3.9961Y-1.7717
X3.9961Y-1.8898
X3.9961Y-2.0276
X3.9961Y-2.1654
X3.9961Y-2.3622
X3.9961Y-2.4803
X3.9961Y-2.5984
X4.0157Y-1.4488
X4.0157Y-2.8642
X4.0157Y-3.8484
X4.0453Y-2.6772
X4.0551Y-3.2677
X4.0945Y-1.7717
X4.0945Y-1.8898
X4.0945Y-2.0276
X4.0945Y-2.1654
X4.0945Y-2.3622
X4.0945Y-2.4803
X4.0945Y-2.5984
X4.0945Y-2.9724
X4.0945Y-3.1496
X4.0945Y-3.3268
X4.1142Y-4.0157
X4.1535Y-2.6575
X4.1535Y-3.2185
X4.1575Y-2.874
X4.1732Y-3.4449
X4.1732Y-3.7008
X4.1831Y-2.628
X4.1831Y-3.1988
X4.2382Y-3.0683
X4.2598Y-1.4488
X4.2618Y-2.6594
X4.2618Y-3.0906
X4.2913Y-3.563
X4.2927Y-2.6831
X4.296Y-3.1063
X4.3196Y-3.1291
X4.3209Y-2.7067
X4.3228Y-3.8976
X4.3445Y-3.8661
X4.3459Y-3.1465
X4.3504Y-2.628
X4.3504Y-2.7323
X4.3695Y-3.1689
X4.3701Y-2.8248
X4.3701Y-4.0157
X4.3701Y-4.1732
X4.378Y-3.8504
X4.3898Y-2.7953
X4.3957Y-3.1864
X4.4094Y-3.4449
X4.4094Y-3.7008
X4.4193Y-2.7559
X4.4193Y-3.2087
X4.4291Y-1.5748
X4.4488Y-2.874
X4.4685Y-4.0157
X4.4685Y-4.1732
X4.4803Y-1.7244
X4.5197Y-3.1575
X4.5276Y-1.7717
X4.5276Y-1.8898
X4.5276Y-2.0276
X4.5276Y-2.1654
X4.5276Y-3.0118
X4.5512Y-3.0945
X4.5866Y-3.0118
X4.6299Y-1.8819
X4.6299Y-3.4587
X4.6358Y-1.565
X4.6614Y-1.9134
X4.6614Y-3.2756
X4.7244Y-1.7717
X4.7244Y-2.9724
X4.7244Y-3.2087
X4.7244Y-3.4646
X4.7795Y-1.1654
X4.7795Y-1.8819
X4.7835Y-2.4685
X4.7835Y-2.9724
X4.8031Y-3.2087
X4.8031Y-3.3268
X4.8031Y-3.4646
X4.811Y-1.1339
X4.811Y-1.9134
X4.8228Y-2.0669
X4.8228Y-2.1654
X4.8583Y-3.2756
X4.8898Y-2.4331
X4.9213Y-1.7717
X4.9803Y-1.2106
X4.9803Y-1.9094
X5.0079Y-2.4331
X5.0197Y-2.1654
X5.0787Y-1.4173
X5.1654Y-2.4331
X5.1772Y-1.5354
X5.1772Y-1.6339
X5.2559Y-1.5354
X5.2559Y-1.6339
X5.315Y-2.1654
X5.315Y-2.3622
X5.3543Y-3.5886
X5.4035Y-3.6083
X5.4114Y-2.0689
X5.4429Y-3.628
X5.4724Y-2.3622
X5.4823Y-3.5098
X5.4823Y-5.0197
X5.5315Y-3.5295
X5.5315Y-4.311
X5.5709Y-3.6476
X5.5709Y-4.9213
X5.6102Y-1.9685
X5.6102Y-2.1654
X5.6102Y-5.1181
X5.6102Y-5.1673
X5.6102Y-5.2165
X5.6201Y-3.6673
X5.6201Y-4.1142
X5.6299Y-2.3622
X5.6594Y-3.3465
X5.6594Y-3.6909
X5.748Y-2.4409
X5.7874Y-2.2835
X5.9055Y-1.4764
X5.9055Y-1.5748
X6.0039Y-1.4764
X6.0039Y-1.5748
X6.0433Y-3.2283
X6.0433Y-3.6614
X6.0433Y-3.9961
X6.0433Y-4.4291
X6.0433Y-4.8031
X6.0433Y-5.2362
X6.063Y-2.2835
X6.1024Y-1.1811
X6.1024Y-3.4173
X6.1024Y-3.4724
X6.1024Y-4.1969
X6.1024Y-4.2441
X6.1024Y-4.9921
X6.1024Y-5.0472
X6.1024Y-5.3543
X6.1496Y-3.0945
X6.1496Y-3.1575
X6.2835Y-3.0945
X6.2992Y-1.1811
X6.2992Y-1.9685
X6.2992Y-2.6378
X6.3386Y-3.563
X6.3386Y-4.3307
X6.3386Y-5.1378
X6.4331Y-2.6417
X6.437Y-1.9685
X6.4803Y-3.4173
X6.4803Y-3.4724
X6.4803Y-4.1969
X6.4803Y-4.2441
X6.4803Y-4.9921
X6.4803Y-5.0472
X6.4961Y-1.1811
X6.5433Y-2.2756
X6.5748Y-1.4173
X6.5748Y-1.5551
X6.6811Y-1.2913
X6.6929Y-1.1811
X6.6929Y-1.4173
X6.7402Y-2.2756
X6.878Y-1.2913
X6.8898Y-1.1811
X6.8898Y-1.4173
X6.8976Y-2.2756
X7.0157Y-2.2756
X7.0748Y-1.2913
X7.0866Y-1.1811
X7.0878Y-2.3413
X7.2047Y-2.2047
X7.2047Y-2.2835
X7.3937Y-1.1811
X7.4213Y-2.5
X7.4409Y-2.4409
X7.4409Y-2.5591
X7.4409Y-2.7559
X7.4685Y-1.2913
X7.4803Y-1.1811
X7.5984Y-3.1575
X7.5984Y-4.8819
X7.6378Y-2.5591
X7.6378Y-2.7559
X7.6575Y-3.3661
X7.6575Y-3.5236
X7.6575Y-4.2323
X7.6575Y-4.9409
X7.6654Y-1.2913
X7.6772Y-1.1811
X7.7362Y-4.1142
X7.8346Y-2.5591
X7.8346Y-2.7559
X7.8543Y-1.2598
X7.874Y-1.1811
X8.0315Y-2.7559
X8.0709Y-5.5512
X8.1102Y-5.5118
X8.1496Y-5.4528
X8.189Y-5.5118
X8.2283Y-2.5591
X8.2283Y-2.7559
X8.4252Y-2.5591
X8.4252Y-2.7559
X8.4646Y-5.4528
X8.5236Y-5.5512
X8.5433Y-1.2598
X8.5433Y-1.378
X8.5433Y-1.4961
X8.622Y-2.5591
X8.622Y-2.7559
X8.6614Y-1.2598
X8.6614Y-1.378
X8.6614Y-1.4961
X8.6614Y-1.6535
X8.6614Y-1.7717
X8.6614Y-1.8898
X8.6614Y-2.0079
X8.6614Y-2.126
X8.6614Y-2.2441
X8.6614Y-2.5
X8.7205Y-2.4409
X8.7697Y-2.7953
X8.7697Y-2.8543
X8.7795Y-1.2598
X8.7795Y-1.378
X8.7795Y-1.6535
X8.7795Y-1.8898
X8.7795Y-2.0079
X8.7795Y-2.126
X8.7795Y-5.4528
X8.7894Y-4.5079
X8.8189Y-2.3622
X8.8189Y-2.4803
X8.8189Y-2.5984
X8.8189Y-2.7165
X8.8189Y-2.9134
X8.8189Y-2.9921
X8.8189Y-3.0709
X8.9075Y-3.75
X8.937Y-1.2598
X8.937Y-1.378
X8.937Y-1.6535
X8.937Y-1.8898
X8.937Y-2.0079
X8.937Y-2.126
X8.937Y-2.2441
X8.937Y-2.3622
X8.937Y-2.4803
X8.937Y-2.7165
X8.937Y-2.9134
X9.0354Y-3.75
X9.0354Y-4.5079
X9.0551Y-1.2598
X9.0551Y-1.378
X9.0551Y-1.6535
X9.0551Y-1.7717
X9.0551Y-1.8898
X9.0551Y-2.0079
X9.0551Y-2.126
X9.0551Y-2.2441
X9.0551Y-2.3622
X9.0551Y-2.4803
X9.0551Y-2.5984
X9.0551Y-2.7165
X9.0551Y-2.9134
X9.1732Y-1.2598
X9.1732Y-1.378
X9.1732Y-2.2441
X9.1732Y-2.3622
X9.1732Y-2.4803
X9.1732Y-2.7953
X9.1732Y-2.8543
X9.1732Y-2.9134
X9.1732Y-3.3268
X9.1732Y-4.0945
X9.2126Y-2.9921
X9.2126Y-3.2874
X9.3898Y-4.0157
T2
X3.1496Y-1.2992
X3.1496Y-1.4488
X3.252Y-1.5433
X3.5039Y-3.6457
X3.7795Y-2.2992
X3.7795Y-2.5276
X3.7795Y-3.0157
X3.7795Y-3.2126
X4.1732Y-4.1181
X4.5354Y-1.3386
X4.5433Y-4.1181
X4.5591Y-2.2441
X4.5591Y-2.9134
X4.8583Y-2.9134
X4.9114Y-1.2894
X4.9114Y-1.6535
X5.0669Y-1.9882
X5.3307Y-1.9882
X6.0827Y-1.7126
X6.0827Y-2.6969
X6.6142Y-1.7126
X6.6142Y-2.6969
X7.2205Y-1.2913
X8.2874Y-3.1102
X8.4449Y-1.7126
X8.622Y-1.7126
X9.1339Y-2.5984
T3
X2.815Y-1.2992
X2.9134Y-1.2008
X3.0118Y-1.2992
T4
X3.3126Y-1.2598
X3.3126Y-1.3598
X3.4126Y-1.2598
X3.4126Y-1.3598
X3.5126Y-1.2598
X3.5126Y-1.3598
X3.6126Y-1.2598
X3.6126Y-1.3598
X3.7126Y-1.2598
X3.7126Y-1.3598
X3.8126Y-1.2598
X3.8126Y-1.3598
X3.9126Y-1.2598
X3.9126Y-1.3598
X4.0126Y-1.2598
X4.0126Y-1.3598
X4.1126Y-1.2598
X4.1126Y-1.3598
X4.2126Y-1.2598
X4.2126Y-1.3598
X7.6772Y-1.8307
X7.6772Y-2.0276
T5
X5.7874Y-4.0157
X9.3307Y-2.9528
X2.5591Y-4.7
X6.1024Y-5.6299
X9.3307Y-3.2677
X5.9843Y-1.2008
X9.3307Y-3.8976
X8.1496Y-5.6299
X6.7323Y-5.6299
X6.4173Y-5.6299
X5.7874Y-4.8425
X5.7874Y-5.1969
X9.3307Y-1.8504
X7.0472Y-5.6299
X8.7795Y-5.6299
X5.3346Y-1.2008
X2.5591Y-4.1685
X2.5591Y-5.1575
X2.5591Y-4.4441
X9.3307Y-2.5984
X9.3307Y-1.4961
X5.7874Y-4.4094
X5.7874Y-3.2677
X9.3307Y-3.5827
X5.6299Y-1.2008
X8.4646Y-5.6299
X5.7874Y-3.622
X2.5591Y-3.8929
X8.937Y-2.5984
X9.0945Y-5.6299
T6
X8.1102Y-4.8394
X8.1102Y-4.9394
X8.1102Y-5.0394
X8.7402Y-3.422
X8.7402Y-3.522
X8.7402Y-3.622
X3.1496Y-1.6535
X3.2496Y-1.6535
X3.3496Y-1.6535
X3.4496Y-1.6535
X3.5496Y-1.6535
X3.6496Y-1.6535
X3.7496Y-1.6535
X3.8496Y-1.6535
X3.9496Y-1.6535
X4.0496Y-1.6535
X4.1496Y-1.6535
X4.2496Y-1.6535
X4.3496Y-1.6535
X4.4496Y-1.6535
X4.5496Y-1.6535
X4.6496Y-1.6535
X8.1102Y-4.1307
X8.1102Y-4.2307
X8.1102Y-4.3307
X8.7402Y-4.1307
X8.7402Y-4.2307
X8.7402Y-4.3307
X2.5591Y-1.5354
X2.6591Y-1.5354
X2.7591Y-1.5354
X2.8591Y-1.5354
X8.7402Y-4.8394
X8.7402Y-4.9394
X8.7402Y-5.0394
X8.1102Y-3.422
X8.1102Y-3.522
X8.1102Y-3.622
T7
X8.5039Y-3.2614
X8.5039Y-3.6614
X5.9449Y-1.3323
X5.9449Y-1.7323
X6.4504Y-3.0315
X6.8504Y-3.0315
X6.4504Y-4.6063
X6.8504Y-4.6063
X8.5039Y-3.9701
X8.5039Y-4.3701
X7.874Y-3.9701
X7.874Y-4.3701
X8.5039Y-4.6787
X8.5039Y-5.0787
X6.4504Y-3.8189
X6.8504Y-3.8189
X7.874Y-3.2614
X7.874Y-3.6614
X7.874Y-4.6787
X7.874Y-5.0787
X5.9449Y-2.2835
X5.9449Y-2.6835
T8
X3.5689Y-5.2953
X3.5693Y-5.4921
X4.0689Y-5.2953
X4.0689Y-5.4921
X2.8209Y-5.2953
X2.8213Y-5.4921
X3.3209Y-5.2953
X3.3209Y-5.4921
X5.065Y-5.2953
X5.0654Y-5.4921
X5.565Y-5.2953
X5.565Y-5.4921
X4.3169Y-5.2953
X4.3173Y-5.4921
X4.8169Y-5.2953
X4.8169Y-5.4921
T9
X5.4724Y-1.3583
X5.4724Y-1.4961
X5.4724Y-2.5
X5.4724Y-2.6969
T10
X9.3307Y-4.3209
X9.3307Y-4.4587
X9.3307Y-4.5965
X9.3307Y-4.7343
X9.3307Y-4.872
X9.3307Y-5.0098
X9.3307Y-5.1476
X9.3307Y-5.2854
T11
X7.6772Y-2.2835
X8.2772Y-2.2835
T12
X8.5236Y-2.2047
X9.3504Y-2.2047
T13
X2.5886Y-2.1575
X2.5886Y-2.3307
T14
X9.3307Y-5.6299
X2.5984Y-5.5906
X9.3307Y-1.2205
X8.2677Y-1.8898
X6.7913Y-1.8504
X2.5984Y-1.2598
X5.748Y-5.5512
X5.4921Y-3.3268
T6
G00X8.75Y-1.5354
M15
G01X8.9665Y-1.5354
M16
G05
G00X8.75Y-1.811
M15
G01X8.9665Y-1.811
M16
G05
G00X8.1614Y-1.4075
M15
G01X8.1614Y-1.5059
M16
G05
G00X8.2972Y-1.3386
M15
G01X8.3957Y-1.3386
M16
G05
G00X8.2972Y-1.5748
M15
G01X8.3957Y-1.5748
M16
G05
T0
M30
