%TF.GenerationSoftware,KiCad,Pcbnew,(5.1.7)-1*%
%TF.CreationDate,2020-11-10T11:56:55+09:00*%
%TF.ProjectId,BLDC_Motor_Controller_Ver1.0A_TEST,424c4443-5f4d-46f7-946f-725f436f6e74,Ver1.0A*%
%TF.SameCoordinates,Original*%
%TF.FileFunction,Paste,Bot*%
%TF.FilePolarity,Positive*%
%FSLAX46Y46*%
G04 Gerber Fmt 4.6, Leading zero omitted, Abs format (unit mm)*
G04 Created by KiCad (PCBNEW (5.1.7)-1) date 2020-11-10 11:56:55*
%MOMM*%
%LPD*%
G01*
G04 APERTURE LIST*
G04 APERTURE END LIST*
%TO.C,C35*%
G36*
G01*
X234775000Y-104425001D02*
X234775000Y-103574999D01*
G75*
G02*
X235024999Y-103325000I249999J0D01*
G01*
X236100001Y-103325000D01*
G75*
G02*
X236350000Y-103574999I0J-249999D01*
G01*
X236350000Y-104425001D01*
G75*
G02*
X236100001Y-104675000I-249999J0D01*
G01*
X235024999Y-104675000D01*
G75*
G02*
X234775000Y-104425001I0J249999D01*
G01*
G37*
G36*
G01*
X237650000Y-104425001D02*
X237650000Y-103574999D01*
G75*
G02*
X237899999Y-103325000I249999J0D01*
G01*
X238975001Y-103325000D01*
G75*
G02*
X239225000Y-103574999I0J-249999D01*
G01*
X239225000Y-104425001D01*
G75*
G02*
X238975001Y-104675000I-249999J0D01*
G01*
X237899999Y-104675000D01*
G75*
G02*
X237650000Y-104425001I0J249999D01*
G01*
G37*
%TD*%
%TO.C,R1*%
G36*
G01*
X184100000Y-29375000D02*
X184100000Y-30625000D01*
G75*
G02*
X183850000Y-30875000I-250000J0D01*
G01*
X183050000Y-30875000D01*
G75*
G02*
X182800000Y-30625000I0J250000D01*
G01*
X182800000Y-29375000D01*
G75*
G02*
X183050000Y-29125000I250000J0D01*
G01*
X183850000Y-29125000D01*
G75*
G02*
X184100000Y-29375000I0J-250000D01*
G01*
G37*
G36*
G01*
X187200000Y-29375000D02*
X187200000Y-30625000D01*
G75*
G02*
X186950000Y-30875000I-250000J0D01*
G01*
X186150000Y-30875000D01*
G75*
G02*
X185900000Y-30625000I0J250000D01*
G01*
X185900000Y-29375000D01*
G75*
G02*
X186150000Y-29125000I250000J0D01*
G01*
X186950000Y-29125000D01*
G75*
G02*
X187200000Y-29375000I0J-250000D01*
G01*
G37*
%TD*%
%TO.C,R2*%
G36*
G01*
X73200000Y-98375000D02*
X73200000Y-99625000D01*
G75*
G02*
X72950000Y-99875000I-250000J0D01*
G01*
X72150000Y-99875000D01*
G75*
G02*
X71900000Y-99625000I0J250000D01*
G01*
X71900000Y-98375000D01*
G75*
G02*
X72150000Y-98125000I250000J0D01*
G01*
X72950000Y-98125000D01*
G75*
G02*
X73200000Y-98375000I0J-250000D01*
G01*
G37*
G36*
G01*
X70100000Y-98375000D02*
X70100000Y-99625000D01*
G75*
G02*
X69850000Y-99875000I-250000J0D01*
G01*
X69050000Y-99875000D01*
G75*
G02*
X68800000Y-99625000I0J250000D01*
G01*
X68800000Y-98375000D01*
G75*
G02*
X69050000Y-98125000I250000J0D01*
G01*
X69850000Y-98125000D01*
G75*
G02*
X70100000Y-98375000I0J-250000D01*
G01*
G37*
%TD*%
%TO.C,R3*%
G36*
G01*
X73200000Y-105375000D02*
X73200000Y-106625000D01*
G75*
G02*
X72950000Y-106875000I-250000J0D01*
G01*
X72150000Y-106875000D01*
G75*
G02*
X71900000Y-106625000I0J250000D01*
G01*
X71900000Y-105375000D01*
G75*
G02*
X72150000Y-105125000I250000J0D01*
G01*
X72950000Y-105125000D01*
G75*
G02*
X73200000Y-105375000I0J-250000D01*
G01*
G37*
G36*
G01*
X70100000Y-105375000D02*
X70100000Y-106625000D01*
G75*
G02*
X69850000Y-106875000I-250000J0D01*
G01*
X69050000Y-106875000D01*
G75*
G02*
X68800000Y-106625000I0J250000D01*
G01*
X68800000Y-105375000D01*
G75*
G02*
X69050000Y-105125000I250000J0D01*
G01*
X69850000Y-105125000D01*
G75*
G02*
X70100000Y-105375000I0J-250000D01*
G01*
G37*
%TD*%
%TO.C,R4*%
G36*
G01*
X70100000Y-112375000D02*
X70100000Y-113625000D01*
G75*
G02*
X69850000Y-113875000I-250000J0D01*
G01*
X69050000Y-113875000D01*
G75*
G02*
X68800000Y-113625000I0J250000D01*
G01*
X68800000Y-112375000D01*
G75*
G02*
X69050000Y-112125000I250000J0D01*
G01*
X69850000Y-112125000D01*
G75*
G02*
X70100000Y-112375000I0J-250000D01*
G01*
G37*
G36*
G01*
X73200000Y-112375000D02*
X73200000Y-113625000D01*
G75*
G02*
X72950000Y-113875000I-250000J0D01*
G01*
X72150000Y-113875000D01*
G75*
G02*
X71900000Y-113625000I0J250000D01*
G01*
X71900000Y-112375000D01*
G75*
G02*
X72150000Y-112125000I250000J0D01*
G01*
X72950000Y-112125000D01*
G75*
G02*
X73200000Y-112375000I0J-250000D01*
G01*
G37*
%TD*%
%TO.C,R5*%
G36*
G01*
X70100000Y-118875000D02*
X70100000Y-120125000D01*
G75*
G02*
X69850000Y-120375000I-250000J0D01*
G01*
X69050000Y-120375000D01*
G75*
G02*
X68800000Y-120125000I0J250000D01*
G01*
X68800000Y-118875000D01*
G75*
G02*
X69050000Y-118625000I250000J0D01*
G01*
X69850000Y-118625000D01*
G75*
G02*
X70100000Y-118875000I0J-250000D01*
G01*
G37*
G36*
G01*
X73200000Y-118875000D02*
X73200000Y-120125000D01*
G75*
G02*
X72950000Y-120375000I-250000J0D01*
G01*
X72150000Y-120375000D01*
G75*
G02*
X71900000Y-120125000I0J250000D01*
G01*
X71900000Y-118875000D01*
G75*
G02*
X72150000Y-118625000I250000J0D01*
G01*
X72950000Y-118625000D01*
G75*
G02*
X73200000Y-118875000I0J-250000D01*
G01*
G37*
%TD*%
%TO.C,R33*%
G36*
G01*
X65400000Y-66625000D02*
X65400000Y-65375000D01*
G75*
G02*
X65650000Y-65125000I250000J0D01*
G01*
X66450000Y-65125000D01*
G75*
G02*
X66700000Y-65375000I0J-250000D01*
G01*
X66700000Y-66625000D01*
G75*
G02*
X66450000Y-66875000I-250000J0D01*
G01*
X65650000Y-66875000D01*
G75*
G02*
X65400000Y-66625000I0J250000D01*
G01*
G37*
G36*
G01*
X62300000Y-66625000D02*
X62300000Y-65375000D01*
G75*
G02*
X62550000Y-65125000I250000J0D01*
G01*
X63350000Y-65125000D01*
G75*
G02*
X63600000Y-65375000I0J-250000D01*
G01*
X63600000Y-66625000D01*
G75*
G02*
X63350000Y-66875000I-250000J0D01*
G01*
X62550000Y-66875000D01*
G75*
G02*
X62300000Y-66625000I0J250000D01*
G01*
G37*
%TD*%
%TO.C,R34*%
G36*
G01*
X65400000Y-44125000D02*
X65400000Y-42875000D01*
G75*
G02*
X65650000Y-42625000I250000J0D01*
G01*
X66450000Y-42625000D01*
G75*
G02*
X66700000Y-42875000I0J-250000D01*
G01*
X66700000Y-44125000D01*
G75*
G02*
X66450000Y-44375000I-250000J0D01*
G01*
X65650000Y-44375000D01*
G75*
G02*
X65400000Y-44125000I0J250000D01*
G01*
G37*
G36*
G01*
X62300000Y-44125000D02*
X62300000Y-42875000D01*
G75*
G02*
X62550000Y-42625000I250000J0D01*
G01*
X63350000Y-42625000D01*
G75*
G02*
X63600000Y-42875000I0J-250000D01*
G01*
X63600000Y-44125000D01*
G75*
G02*
X63350000Y-44375000I-250000J0D01*
G01*
X62550000Y-44375000D01*
G75*
G02*
X62300000Y-44125000I0J250000D01*
G01*
G37*
%TD*%
%TO.C,R35*%
G36*
G01*
X62300000Y-48625000D02*
X62300000Y-47375000D01*
G75*
G02*
X62550000Y-47125000I250000J0D01*
G01*
X63350000Y-47125000D01*
G75*
G02*
X63600000Y-47375000I0J-250000D01*
G01*
X63600000Y-48625000D01*
G75*
G02*
X63350000Y-48875000I-250000J0D01*
G01*
X62550000Y-48875000D01*
G75*
G02*
X62300000Y-48625000I0J250000D01*
G01*
G37*
G36*
G01*
X65400000Y-48625000D02*
X65400000Y-47375000D01*
G75*
G02*
X65650000Y-47125000I250000J0D01*
G01*
X66450000Y-47125000D01*
G75*
G02*
X66700000Y-47375000I0J-250000D01*
G01*
X66700000Y-48625000D01*
G75*
G02*
X66450000Y-48875000I-250000J0D01*
G01*
X65650000Y-48875000D01*
G75*
G02*
X65400000Y-48625000I0J250000D01*
G01*
G37*
%TD*%
M02*
