%TF.GenerationSoftware,KiCad,Pcbnew,(5.1.7)-1*%
%TF.CreationDate,2021-02-07T17:43:08+09:00*%
%TF.ProjectId,BLDC_Motor_Controller_Ver2.0A,424c4443-5f4d-46f7-946f-725f436f6e74,Ver 2.0A*%
%TF.SameCoordinates,Original*%
%TF.FileFunction,Paste,Bot*%
%TF.FilePolarity,Positive*%
%FSLAX46Y46*%
G04 Gerber Fmt 4.6, Leading zero omitted, Abs format (unit mm)*
G04 Created by KiCad (PCBNEW (5.1.7)-1) date 2021-02-07 17:43:08*
%MOMM*%
%LPD*%
G01*
G04 APERTURE LIST*
G04 APERTURE END LIST*
%TO.C,C15*%
G36*
G01*
X164042500Y-146349998D02*
X164042500Y-147650002D01*
G75*
G02*
X163792502Y-147900000I-249998J0D01*
G01*
X162967498Y-147900000D01*
G75*
G02*
X162717500Y-147650002I0J249998D01*
G01*
X162717500Y-146349998D01*
G75*
G02*
X162967498Y-146100000I249998J0D01*
G01*
X163792502Y-146100000D01*
G75*
G02*
X164042500Y-146349998I0J-249998D01*
G01*
G37*
G36*
G01*
X167167500Y-146349998D02*
X167167500Y-147650002D01*
G75*
G02*
X166917502Y-147900000I-249998J0D01*
G01*
X166092498Y-147900000D01*
G75*
G02*
X165842500Y-147650002I0J249998D01*
G01*
X165842500Y-146349998D01*
G75*
G02*
X166092498Y-146100000I249998J0D01*
G01*
X166917502Y-146100000D01*
G75*
G02*
X167167500Y-146349998I0J-249998D01*
G01*
G37*
%TD*%
%TO.C,C16*%
G36*
G01*
X181175000Y-146349998D02*
X181175000Y-147650002D01*
G75*
G02*
X180925002Y-147900000I-249998J0D01*
G01*
X180099998Y-147900000D01*
G75*
G02*
X179850000Y-147650002I0J249998D01*
G01*
X179850000Y-146349998D01*
G75*
G02*
X180099998Y-146100000I249998J0D01*
G01*
X180925002Y-146100000D01*
G75*
G02*
X181175000Y-146349998I0J-249998D01*
G01*
G37*
G36*
G01*
X178050000Y-146349998D02*
X178050000Y-147650002D01*
G75*
G02*
X177800002Y-147900000I-249998J0D01*
G01*
X176974998Y-147900000D01*
G75*
G02*
X176725000Y-147650002I0J249998D01*
G01*
X176725000Y-146349998D01*
G75*
G02*
X176974998Y-146100000I249998J0D01*
G01*
X177800002Y-146100000D01*
G75*
G02*
X178050000Y-146349998I0J-249998D01*
G01*
G37*
%TD*%
%TO.C,C17*%
G36*
G01*
X192050000Y-146349998D02*
X192050000Y-147650002D01*
G75*
G02*
X191800002Y-147900000I-249998J0D01*
G01*
X190974998Y-147900000D01*
G75*
G02*
X190725000Y-147650002I0J249998D01*
G01*
X190725000Y-146349998D01*
G75*
G02*
X190974998Y-146100000I249998J0D01*
G01*
X191800002Y-146100000D01*
G75*
G02*
X192050000Y-146349998I0J-249998D01*
G01*
G37*
G36*
G01*
X195175000Y-146349998D02*
X195175000Y-147650002D01*
G75*
G02*
X194925002Y-147900000I-249998J0D01*
G01*
X194099998Y-147900000D01*
G75*
G02*
X193850000Y-147650002I0J249998D01*
G01*
X193850000Y-146349998D01*
G75*
G02*
X194099998Y-146100000I249998J0D01*
G01*
X194925002Y-146100000D01*
G75*
G02*
X195175000Y-146349998I0J-249998D01*
G01*
G37*
%TD*%
%TO.C,C18*%
G36*
G01*
X209167500Y-146349998D02*
X209167500Y-147650002D01*
G75*
G02*
X208917502Y-147900000I-249998J0D01*
G01*
X208092498Y-147900000D01*
G75*
G02*
X207842500Y-147650002I0J249998D01*
G01*
X207842500Y-146349998D01*
G75*
G02*
X208092498Y-146100000I249998J0D01*
G01*
X208917502Y-146100000D01*
G75*
G02*
X209167500Y-146349998I0J-249998D01*
G01*
G37*
G36*
G01*
X206042500Y-146349998D02*
X206042500Y-147650002D01*
G75*
G02*
X205792502Y-147900000I-249998J0D01*
G01*
X204967498Y-147900000D01*
G75*
G02*
X204717500Y-147650002I0J249998D01*
G01*
X204717500Y-146349998D01*
G75*
G02*
X204967498Y-146100000I249998J0D01*
G01*
X205792502Y-146100000D01*
G75*
G02*
X206042500Y-146349998I0J-249998D01*
G01*
G37*
%TD*%
%TO.C,C20*%
G36*
G01*
X115350000Y-116574999D02*
X115350000Y-117425001D01*
G75*
G02*
X115100001Y-117675000I-249999J0D01*
G01*
X114024999Y-117675000D01*
G75*
G02*
X113775000Y-117425001I0J249999D01*
G01*
X113775000Y-116574999D01*
G75*
G02*
X114024999Y-116325000I249999J0D01*
G01*
X115100001Y-116325000D01*
G75*
G02*
X115350000Y-116574999I0J-249999D01*
G01*
G37*
G36*
G01*
X118225000Y-116574999D02*
X118225000Y-117425001D01*
G75*
G02*
X117975001Y-117675000I-249999J0D01*
G01*
X116899999Y-117675000D01*
G75*
G02*
X116650000Y-117425001I0J249999D01*
G01*
X116650000Y-116574999D01*
G75*
G02*
X116899999Y-116325000I249999J0D01*
G01*
X117975001Y-116325000D01*
G75*
G02*
X118225000Y-116574999I0J-249999D01*
G01*
G37*
%TD*%
%TO.C,C21*%
G36*
G01*
X130899998Y-109450000D02*
X132200002Y-109450000D01*
G75*
G02*
X132450000Y-109699998I0J-249998D01*
G01*
X132450000Y-110525002D01*
G75*
G02*
X132200002Y-110775000I-249998J0D01*
G01*
X130899998Y-110775000D01*
G75*
G02*
X130650000Y-110525002I0J249998D01*
G01*
X130650000Y-109699998D01*
G75*
G02*
X130899998Y-109450000I249998J0D01*
G01*
G37*
G36*
G01*
X130899998Y-106325000D02*
X132200002Y-106325000D01*
G75*
G02*
X132450000Y-106574998I0J-249998D01*
G01*
X132450000Y-107400002D01*
G75*
G02*
X132200002Y-107650000I-249998J0D01*
G01*
X130899998Y-107650000D01*
G75*
G02*
X130650000Y-107400002I0J249998D01*
G01*
X130650000Y-106574998D01*
G75*
G02*
X130899998Y-106325000I249998J0D01*
G01*
G37*
%TD*%
%TO.C,C22*%
G36*
G01*
X130899998Y-99825000D02*
X132200002Y-99825000D01*
G75*
G02*
X132450000Y-100074998I0J-249998D01*
G01*
X132450000Y-100900002D01*
G75*
G02*
X132200002Y-101150000I-249998J0D01*
G01*
X130899998Y-101150000D01*
G75*
G02*
X130650000Y-100900002I0J249998D01*
G01*
X130650000Y-100074998D01*
G75*
G02*
X130899998Y-99825000I249998J0D01*
G01*
G37*
G36*
G01*
X130899998Y-102950000D02*
X132200002Y-102950000D01*
G75*
G02*
X132450000Y-103199998I0J-249998D01*
G01*
X132450000Y-104025002D01*
G75*
G02*
X132200002Y-104275000I-249998J0D01*
G01*
X130899998Y-104275000D01*
G75*
G02*
X130650000Y-104025002I0J249998D01*
G01*
X130650000Y-103199998D01*
G75*
G02*
X130899998Y-102950000I249998J0D01*
G01*
G37*
%TD*%
%TO.C,C23*%
G36*
G01*
X117325000Y-97650002D02*
X117325000Y-96349998D01*
G75*
G02*
X117574998Y-96100000I249998J0D01*
G01*
X118400002Y-96100000D01*
G75*
G02*
X118650000Y-96349998I0J-249998D01*
G01*
X118650000Y-97650002D01*
G75*
G02*
X118400002Y-97900000I-249998J0D01*
G01*
X117574998Y-97900000D01*
G75*
G02*
X117325000Y-97650002I0J249998D01*
G01*
G37*
G36*
G01*
X120450000Y-97650002D02*
X120450000Y-96349998D01*
G75*
G02*
X120699998Y-96100000I249998J0D01*
G01*
X121525002Y-96100000D01*
G75*
G02*
X121775000Y-96349998I0J-249998D01*
G01*
X121775000Y-97650002D01*
G75*
G02*
X121525002Y-97900000I-249998J0D01*
G01*
X120699998Y-97900000D01*
G75*
G02*
X120450000Y-97650002I0J249998D01*
G01*
G37*
%TD*%
%TO.C,C24*%
G36*
G01*
X115100002Y-108050000D02*
X113799998Y-108050000D01*
G75*
G02*
X113550000Y-107800002I0J249998D01*
G01*
X113550000Y-106974998D01*
G75*
G02*
X113799998Y-106725000I249998J0D01*
G01*
X115100002Y-106725000D01*
G75*
G02*
X115350000Y-106974998I0J-249998D01*
G01*
X115350000Y-107800002D01*
G75*
G02*
X115100002Y-108050000I-249998J0D01*
G01*
G37*
G36*
G01*
X115100002Y-111175000D02*
X113799998Y-111175000D01*
G75*
G02*
X113550000Y-110925002I0J249998D01*
G01*
X113550000Y-110099998D01*
G75*
G02*
X113799998Y-109850000I249998J0D01*
G01*
X115100002Y-109850000D01*
G75*
G02*
X115350000Y-110099998I0J-249998D01*
G01*
X115350000Y-110925002D01*
G75*
G02*
X115100002Y-111175000I-249998J0D01*
G01*
G37*
%TD*%
%TO.C,C25*%
G36*
G01*
X118175000Y-113399998D02*
X118175000Y-114700002D01*
G75*
G02*
X117925002Y-114950000I-249998J0D01*
G01*
X117099998Y-114950000D01*
G75*
G02*
X116850000Y-114700002I0J249998D01*
G01*
X116850000Y-113399998D01*
G75*
G02*
X117099998Y-113150000I249998J0D01*
G01*
X117925002Y-113150000D01*
G75*
G02*
X118175000Y-113399998I0J-249998D01*
G01*
G37*
G36*
G01*
X115050000Y-113399998D02*
X115050000Y-114700002D01*
G75*
G02*
X114800002Y-114950000I-249998J0D01*
G01*
X113974998Y-114950000D01*
G75*
G02*
X113725000Y-114700002I0J249998D01*
G01*
X113725000Y-113399998D01*
G75*
G02*
X113974998Y-113150000I249998J0D01*
G01*
X114800002Y-113150000D01*
G75*
G02*
X115050000Y-113399998I0J-249998D01*
G01*
G37*
%TD*%
%TO.C,C28*%
G36*
G01*
X124050000Y-113399998D02*
X124050000Y-114700002D01*
G75*
G02*
X123800002Y-114950000I-249998J0D01*
G01*
X122974998Y-114950000D01*
G75*
G02*
X122725000Y-114700002I0J249998D01*
G01*
X122725000Y-113399998D01*
G75*
G02*
X122974998Y-113150000I249998J0D01*
G01*
X123800002Y-113150000D01*
G75*
G02*
X124050000Y-113399998I0J-249998D01*
G01*
G37*
G36*
G01*
X127175000Y-113399998D02*
X127175000Y-114700002D01*
G75*
G02*
X126925002Y-114950000I-249998J0D01*
G01*
X126099998Y-114950000D01*
G75*
G02*
X125850000Y-114700002I0J249998D01*
G01*
X125850000Y-113399998D01*
G75*
G02*
X126099998Y-113150000I249998J0D01*
G01*
X126925002Y-113150000D01*
G75*
G02*
X127175000Y-113399998I0J-249998D01*
G01*
G37*
%TD*%
%TO.C,C29*%
G36*
G01*
X127225000Y-116574999D02*
X127225000Y-117425001D01*
G75*
G02*
X126975001Y-117675000I-249999J0D01*
G01*
X125899999Y-117675000D01*
G75*
G02*
X125650000Y-117425001I0J249999D01*
G01*
X125650000Y-116574999D01*
G75*
G02*
X125899999Y-116325000I249999J0D01*
G01*
X126975001Y-116325000D01*
G75*
G02*
X127225000Y-116574999I0J-249999D01*
G01*
G37*
G36*
G01*
X124350000Y-116574999D02*
X124350000Y-117425001D01*
G75*
G02*
X124100001Y-117675000I-249999J0D01*
G01*
X123024999Y-117675000D01*
G75*
G02*
X122775000Y-117425001I0J249999D01*
G01*
X122775000Y-116574999D01*
G75*
G02*
X123024999Y-116325000I249999J0D01*
G01*
X124100001Y-116325000D01*
G75*
G02*
X124350000Y-116574999I0J-249999D01*
G01*
G37*
%TD*%
%TO.C,C46*%
G36*
G01*
X150254999Y-112120000D02*
X151105001Y-112120000D01*
G75*
G02*
X151355000Y-112369999I0J-249999D01*
G01*
X151355000Y-113445001D01*
G75*
G02*
X151105001Y-113695000I-249999J0D01*
G01*
X150254999Y-113695000D01*
G75*
G02*
X150005000Y-113445001I0J249999D01*
G01*
X150005000Y-112369999D01*
G75*
G02*
X150254999Y-112120000I249999J0D01*
G01*
G37*
G36*
G01*
X150254999Y-109245000D02*
X151105001Y-109245000D01*
G75*
G02*
X151355000Y-109494999I0J-249999D01*
G01*
X151355000Y-110570001D01*
G75*
G02*
X151105001Y-110820000I-249999J0D01*
G01*
X150254999Y-110820000D01*
G75*
G02*
X150005000Y-110570001I0J249999D01*
G01*
X150005000Y-109494999D01*
G75*
G02*
X150254999Y-109245000I249999J0D01*
G01*
G37*
%TD*%
%TO.C,C48*%
G36*
G01*
X76950000Y-84600002D02*
X76950000Y-83299998D01*
G75*
G02*
X77199998Y-83050000I249998J0D01*
G01*
X78025002Y-83050000D01*
G75*
G02*
X78275000Y-83299998I0J-249998D01*
G01*
X78275000Y-84600002D01*
G75*
G02*
X78025002Y-84850000I-249998J0D01*
G01*
X77199998Y-84850000D01*
G75*
G02*
X76950000Y-84600002I0J249998D01*
G01*
G37*
G36*
G01*
X73825000Y-84600002D02*
X73825000Y-83299998D01*
G75*
G02*
X74074998Y-83050000I249998J0D01*
G01*
X74900002Y-83050000D01*
G75*
G02*
X75150000Y-83299998I0J-249998D01*
G01*
X75150000Y-84600002D01*
G75*
G02*
X74900002Y-84850000I-249998J0D01*
G01*
X74074998Y-84850000D01*
G75*
G02*
X73825000Y-84600002I0J249998D01*
G01*
G37*
%TD*%
%TO.C,C49*%
G36*
G01*
X209899998Y-91450000D02*
X211200002Y-91450000D01*
G75*
G02*
X211450000Y-91699998I0J-249998D01*
G01*
X211450000Y-92525002D01*
G75*
G02*
X211200002Y-92775000I-249998J0D01*
G01*
X209899998Y-92775000D01*
G75*
G02*
X209650000Y-92525002I0J249998D01*
G01*
X209650000Y-91699998D01*
G75*
G02*
X209899998Y-91450000I249998J0D01*
G01*
G37*
G36*
G01*
X209899998Y-88325000D02*
X211200002Y-88325000D01*
G75*
G02*
X211450000Y-88574998I0J-249998D01*
G01*
X211450000Y-89400002D01*
G75*
G02*
X211200002Y-89650000I-249998J0D01*
G01*
X209899998Y-89650000D01*
G75*
G02*
X209650000Y-89400002I0J249998D01*
G01*
X209650000Y-88574998D01*
G75*
G02*
X209899998Y-88325000I249998J0D01*
G01*
G37*
%TD*%
%TO.C,C50*%
G36*
G01*
X76950000Y-137600002D02*
X76950000Y-136299998D01*
G75*
G02*
X77199998Y-136050000I249998J0D01*
G01*
X78025002Y-136050000D01*
G75*
G02*
X78275000Y-136299998I0J-249998D01*
G01*
X78275000Y-137600002D01*
G75*
G02*
X78025002Y-137850000I-249998J0D01*
G01*
X77199998Y-137850000D01*
G75*
G02*
X76950000Y-137600002I0J249998D01*
G01*
G37*
G36*
G01*
X73825000Y-137600002D02*
X73825000Y-136299998D01*
G75*
G02*
X74074998Y-136050000I249998J0D01*
G01*
X74900002Y-136050000D01*
G75*
G02*
X75150000Y-136299998I0J-249998D01*
G01*
X75150000Y-137600002D01*
G75*
G02*
X74900002Y-137850000I-249998J0D01*
G01*
X74074998Y-137850000D01*
G75*
G02*
X73825000Y-137600002I0J249998D01*
G01*
G37*
%TD*%
%TO.C,C51*%
G36*
G01*
X209899998Y-104325000D02*
X211200002Y-104325000D01*
G75*
G02*
X211450000Y-104574998I0J-249998D01*
G01*
X211450000Y-105400002D01*
G75*
G02*
X211200002Y-105650000I-249998J0D01*
G01*
X209899998Y-105650000D01*
G75*
G02*
X209650000Y-105400002I0J249998D01*
G01*
X209650000Y-104574998D01*
G75*
G02*
X209899998Y-104325000I249998J0D01*
G01*
G37*
G36*
G01*
X209899998Y-107450000D02*
X211200002Y-107450000D01*
G75*
G02*
X211450000Y-107699998I0J-249998D01*
G01*
X211450000Y-108525002D01*
G75*
G02*
X211200002Y-108775000I-249998J0D01*
G01*
X209899998Y-108775000D01*
G75*
G02*
X209650000Y-108525002I0J249998D01*
G01*
X209650000Y-107699998D01*
G75*
G02*
X209899998Y-107450000I249998J0D01*
G01*
G37*
%TD*%
%TO.C,C52*%
G36*
G01*
X146079998Y-109295000D02*
X147380002Y-109295000D01*
G75*
G02*
X147630000Y-109544998I0J-249998D01*
G01*
X147630000Y-110370002D01*
G75*
G02*
X147380002Y-110620000I-249998J0D01*
G01*
X146079998Y-110620000D01*
G75*
G02*
X145830000Y-110370002I0J249998D01*
G01*
X145830000Y-109544998D01*
G75*
G02*
X146079998Y-109295000I249998J0D01*
G01*
G37*
G36*
G01*
X146079998Y-112420000D02*
X147380002Y-112420000D01*
G75*
G02*
X147630000Y-112669998I0J-249998D01*
G01*
X147630000Y-113495002D01*
G75*
G02*
X147380002Y-113745000I-249998J0D01*
G01*
X146079998Y-113745000D01*
G75*
G02*
X145830000Y-113495002I0J249998D01*
G01*
X145830000Y-112669998D01*
G75*
G02*
X146079998Y-112420000I249998J0D01*
G01*
G37*
%TD*%
%TO.C,C53*%
G36*
G01*
X209899998Y-122950000D02*
X211200002Y-122950000D01*
G75*
G02*
X211450000Y-123199998I0J-249998D01*
G01*
X211450000Y-124025002D01*
G75*
G02*
X211200002Y-124275000I-249998J0D01*
G01*
X209899998Y-124275000D01*
G75*
G02*
X209650000Y-124025002I0J249998D01*
G01*
X209650000Y-123199998D01*
G75*
G02*
X209899998Y-122950000I249998J0D01*
G01*
G37*
G36*
G01*
X209899998Y-119825000D02*
X211200002Y-119825000D01*
G75*
G02*
X211450000Y-120074998I0J-249998D01*
G01*
X211450000Y-120900002D01*
G75*
G02*
X211200002Y-121150000I-249998J0D01*
G01*
X209899998Y-121150000D01*
G75*
G02*
X209650000Y-120900002I0J249998D01*
G01*
X209650000Y-120074998D01*
G75*
G02*
X209899998Y-119825000I249998J0D01*
G01*
G37*
%TD*%
%TO.C,C55*%
G36*
G01*
X230650000Y-105425001D02*
X230650000Y-104574999D01*
G75*
G02*
X230899999Y-104325000I249999J0D01*
G01*
X231975001Y-104325000D01*
G75*
G02*
X232225000Y-104574999I0J-249999D01*
G01*
X232225000Y-105425001D01*
G75*
G02*
X231975001Y-105675000I-249999J0D01*
G01*
X230899999Y-105675000D01*
G75*
G02*
X230650000Y-105425001I0J249999D01*
G01*
G37*
G36*
G01*
X227775000Y-105425001D02*
X227775000Y-104574999D01*
G75*
G02*
X228024999Y-104325000I249999J0D01*
G01*
X229100001Y-104325000D01*
G75*
G02*
X229350000Y-104574999I0J-249999D01*
G01*
X229350000Y-105425001D01*
G75*
G02*
X229100001Y-105675000I-249999J0D01*
G01*
X228024999Y-105675000D01*
G75*
G02*
X227775000Y-105425001I0J249999D01*
G01*
G37*
%TD*%
%TO.C,C57*%
G36*
G01*
X230950000Y-109100002D02*
X230950000Y-107799998D01*
G75*
G02*
X231199998Y-107550000I249998J0D01*
G01*
X232025002Y-107550000D01*
G75*
G02*
X232275000Y-107799998I0J-249998D01*
G01*
X232275000Y-109100002D01*
G75*
G02*
X232025002Y-109350000I-249998J0D01*
G01*
X231199998Y-109350000D01*
G75*
G02*
X230950000Y-109100002I0J249998D01*
G01*
G37*
G36*
G01*
X227825000Y-109100002D02*
X227825000Y-107799998D01*
G75*
G02*
X228074998Y-107550000I249998J0D01*
G01*
X228900002Y-107550000D01*
G75*
G02*
X229150000Y-107799998I0J-249998D01*
G01*
X229150000Y-109100002D01*
G75*
G02*
X228900002Y-109350000I-249998J0D01*
G01*
X228074998Y-109350000D01*
G75*
G02*
X227825000Y-109100002I0J249998D01*
G01*
G37*
%TD*%
%TO.C,C59*%
G36*
G01*
X70600002Y-61050000D02*
X69299998Y-61050000D01*
G75*
G02*
X69050000Y-60800002I0J249998D01*
G01*
X69050000Y-59974998D01*
G75*
G02*
X69299998Y-59725000I249998J0D01*
G01*
X70600002Y-59725000D01*
G75*
G02*
X70850000Y-59974998I0J-249998D01*
G01*
X70850000Y-60800002D01*
G75*
G02*
X70600002Y-61050000I-249998J0D01*
G01*
G37*
G36*
G01*
X70600002Y-64175000D02*
X69299998Y-64175000D01*
G75*
G02*
X69050000Y-63925002I0J249998D01*
G01*
X69050000Y-63099998D01*
G75*
G02*
X69299998Y-62850000I249998J0D01*
G01*
X70600002Y-62850000D01*
G75*
G02*
X70850000Y-63099998I0J-249998D01*
G01*
X70850000Y-63925002D01*
G75*
G02*
X70600002Y-64175000I-249998J0D01*
G01*
G37*
%TD*%
%TO.C,C63*%
G36*
G01*
X74637500Y-68425001D02*
X74637500Y-67574999D01*
G75*
G02*
X74887499Y-67325000I249999J0D01*
G01*
X75962501Y-67325000D01*
G75*
G02*
X76212500Y-67574999I0J-249999D01*
G01*
X76212500Y-68425001D01*
G75*
G02*
X75962501Y-68675000I-249999J0D01*
G01*
X74887499Y-68675000D01*
G75*
G02*
X74637500Y-68425001I0J249999D01*
G01*
G37*
G36*
G01*
X71762500Y-68425001D02*
X71762500Y-67574999D01*
G75*
G02*
X72012499Y-67325000I249999J0D01*
G01*
X73087501Y-67325000D01*
G75*
G02*
X73337500Y-67574999I0J-249999D01*
G01*
X73337500Y-68425001D01*
G75*
G02*
X73087501Y-68675000I-249999J0D01*
G01*
X72012499Y-68675000D01*
G75*
G02*
X71762500Y-68425001I0J249999D01*
G01*
G37*
%TD*%
%TO.C,L3*%
G36*
G01*
X131225001Y-117750000D02*
X129824999Y-117750000D01*
G75*
G02*
X129575000Y-117500001I0J249999D01*
G01*
X129575000Y-116774999D01*
G75*
G02*
X129824999Y-116525000I249999J0D01*
G01*
X131225001Y-116525000D01*
G75*
G02*
X131475000Y-116774999I0J-249999D01*
G01*
X131475000Y-117500001D01*
G75*
G02*
X131225001Y-117750000I-249999J0D01*
G01*
G37*
G36*
G01*
X131225001Y-114425000D02*
X129824999Y-114425000D01*
G75*
G02*
X129575000Y-114175001I0J249999D01*
G01*
X129575000Y-113449999D01*
G75*
G02*
X129824999Y-113200000I249999J0D01*
G01*
X131225001Y-113200000D01*
G75*
G02*
X131475000Y-113449999I0J-249999D01*
G01*
X131475000Y-114175001D01*
G75*
G02*
X131225001Y-114425000I-249999J0D01*
G01*
G37*
%TD*%
%TO.C,R27*%
G36*
G01*
X61600000Y-46374999D02*
X61600000Y-47625001D01*
G75*
G02*
X61350001Y-47875000I-249999J0D01*
G01*
X60549999Y-47875000D01*
G75*
G02*
X60300000Y-47625001I0J249999D01*
G01*
X60300000Y-46374999D01*
G75*
G02*
X60549999Y-46125000I249999J0D01*
G01*
X61350001Y-46125000D01*
G75*
G02*
X61600000Y-46374999I0J-249999D01*
G01*
G37*
G36*
G01*
X64700000Y-46374999D02*
X64700000Y-47625001D01*
G75*
G02*
X64450001Y-47875000I-249999J0D01*
G01*
X63649999Y-47875000D01*
G75*
G02*
X63400000Y-47625001I0J249999D01*
G01*
X63400000Y-46374999D01*
G75*
G02*
X63649999Y-46125000I249999J0D01*
G01*
X64450001Y-46125000D01*
G75*
G02*
X64700000Y-46374999I0J-249999D01*
G01*
G37*
%TD*%
%TO.C,R28*%
G36*
G01*
X61600000Y-71874999D02*
X61600000Y-73125001D01*
G75*
G02*
X61350001Y-73375000I-249999J0D01*
G01*
X60549999Y-73375000D01*
G75*
G02*
X60300000Y-73125001I0J249999D01*
G01*
X60300000Y-71874999D01*
G75*
G02*
X60549999Y-71625000I249999J0D01*
G01*
X61350001Y-71625000D01*
G75*
G02*
X61600000Y-71874999I0J-249999D01*
G01*
G37*
G36*
G01*
X64700000Y-71874999D02*
X64700000Y-73125001D01*
G75*
G02*
X64450001Y-73375000I-249999J0D01*
G01*
X63649999Y-73375000D01*
G75*
G02*
X63400000Y-73125001I0J249999D01*
G01*
X63400000Y-71874999D01*
G75*
G02*
X63649999Y-71625000I249999J0D01*
G01*
X64450001Y-71625000D01*
G75*
G02*
X64700000Y-71874999I0J-249999D01*
G01*
G37*
%TD*%
%TO.C,R29*%
G36*
G01*
X61600000Y-67374999D02*
X61600000Y-68625001D01*
G75*
G02*
X61350001Y-68875000I-249999J0D01*
G01*
X60549999Y-68875000D01*
G75*
G02*
X60300000Y-68625001I0J249999D01*
G01*
X60300000Y-67374999D01*
G75*
G02*
X60549999Y-67125000I249999J0D01*
G01*
X61350001Y-67125000D01*
G75*
G02*
X61600000Y-67374999I0J-249999D01*
G01*
G37*
G36*
G01*
X64700000Y-67374999D02*
X64700000Y-68625001D01*
G75*
G02*
X64450001Y-68875000I-249999J0D01*
G01*
X63649999Y-68875000D01*
G75*
G02*
X63400000Y-68625001I0J249999D01*
G01*
X63400000Y-67374999D01*
G75*
G02*
X63649999Y-67125000I249999J0D01*
G01*
X64450001Y-67125000D01*
G75*
G02*
X64700000Y-67374999I0J-249999D01*
G01*
G37*
%TD*%
%TO.C,R30*%
G36*
G01*
X66874999Y-69400000D02*
X68125001Y-69400000D01*
G75*
G02*
X68375000Y-69649999I0J-249999D01*
G01*
X68375000Y-70450001D01*
G75*
G02*
X68125001Y-70700000I-249999J0D01*
G01*
X66874999Y-70700000D01*
G75*
G02*
X66625000Y-70450001I0J249999D01*
G01*
X66625000Y-69649999D01*
G75*
G02*
X66874999Y-69400000I249999J0D01*
G01*
G37*
G36*
G01*
X66874999Y-66300000D02*
X68125001Y-66300000D01*
G75*
G02*
X68375000Y-66549999I0J-249999D01*
G01*
X68375000Y-67350001D01*
G75*
G02*
X68125001Y-67600000I-249999J0D01*
G01*
X66874999Y-67600000D01*
G75*
G02*
X66625000Y-67350001I0J249999D01*
G01*
X66625000Y-66549999D01*
G75*
G02*
X66874999Y-66300000I249999J0D01*
G01*
G37*
%TD*%
M02*
