%TF.GenerationSoftware,KiCad,Pcbnew,(5.1.7)-1*%
%TF.CreationDate,2021-02-07T17:43:08+09:00*%
%TF.ProjectId,BLDC_Motor_Controller_Ver2.0A,424c4443-5f4d-46f7-946f-725f436f6e74,Ver 2.0A*%
%TF.SameCoordinates,Original*%
%TF.FileFunction,Paste,Top*%
%TF.FilePolarity,Positive*%
%FSLAX46Y46*%
G04 Gerber Fmt 4.6, Leading zero omitted, Abs format (unit mm)*
G04 Created by KiCad (PCBNEW (5.1.7)-1) date 2021-02-07 17:43:08*
%MOMM*%
%LPD*%
G01*
G04 APERTURE LIST*
%ADD10R,3.300000X2.500000*%
%ADD11R,1.700000X2.500000*%
%ADD12R,2.500000X1.700000*%
%ADD13R,2.000000X0.500000*%
%ADD14R,1.700000X2.000000*%
%ADD15R,2.000000X0.600000*%
%ADD16R,1.550000X2.000000*%
%ADD17R,2.000000X2.000000*%
%ADD18R,1.200000X2.500000*%
%ADD19R,1.500000X2.200000*%
%ADD20R,3.800000X2.200000*%
%ADD21R,4.600000X1.100000*%
%ADD22R,4.550000X5.250000*%
%ADD23R,1.100000X4.600000*%
%ADD24R,5.250000X4.550000*%
%ADD25R,1.600000X0.300000*%
%ADD26R,2.500000X0.300000*%
%ADD27R,0.300000X2.500000*%
%ADD28R,3.400000X3.400000*%
G04 APERTURE END LIST*
%TO.C,U4*%
G36*
G01*
X119325000Y-111950000D02*
X119175000Y-111950000D01*
G75*
G02*
X119100000Y-111875000I0J75000D01*
G01*
X119100000Y-110475000D01*
G75*
G02*
X119175000Y-110400000I75000J0D01*
G01*
X119325000Y-110400000D01*
G75*
G02*
X119400000Y-110475000I0J-75000D01*
G01*
X119400000Y-111875000D01*
G75*
G02*
X119325000Y-111950000I-75000J0D01*
G01*
G37*
G36*
G01*
X119825000Y-111950000D02*
X119675000Y-111950000D01*
G75*
G02*
X119600000Y-111875000I0J75000D01*
G01*
X119600000Y-110475000D01*
G75*
G02*
X119675000Y-110400000I75000J0D01*
G01*
X119825000Y-110400000D01*
G75*
G02*
X119900000Y-110475000I0J-75000D01*
G01*
X119900000Y-111875000D01*
G75*
G02*
X119825000Y-111950000I-75000J0D01*
G01*
G37*
G36*
G01*
X120325000Y-111950000D02*
X120175000Y-111950000D01*
G75*
G02*
X120100000Y-111875000I0J75000D01*
G01*
X120100000Y-110475000D01*
G75*
G02*
X120175000Y-110400000I75000J0D01*
G01*
X120325000Y-110400000D01*
G75*
G02*
X120400000Y-110475000I0J-75000D01*
G01*
X120400000Y-111875000D01*
G75*
G02*
X120325000Y-111950000I-75000J0D01*
G01*
G37*
G36*
G01*
X120825000Y-111950000D02*
X120675000Y-111950000D01*
G75*
G02*
X120600000Y-111875000I0J75000D01*
G01*
X120600000Y-110475000D01*
G75*
G02*
X120675000Y-110400000I75000J0D01*
G01*
X120825000Y-110400000D01*
G75*
G02*
X120900000Y-110475000I0J-75000D01*
G01*
X120900000Y-111875000D01*
G75*
G02*
X120825000Y-111950000I-75000J0D01*
G01*
G37*
G36*
G01*
X121325000Y-111950000D02*
X121175000Y-111950000D01*
G75*
G02*
X121100000Y-111875000I0J75000D01*
G01*
X121100000Y-110475000D01*
G75*
G02*
X121175000Y-110400000I75000J0D01*
G01*
X121325000Y-110400000D01*
G75*
G02*
X121400000Y-110475000I0J-75000D01*
G01*
X121400000Y-111875000D01*
G75*
G02*
X121325000Y-111950000I-75000J0D01*
G01*
G37*
G36*
G01*
X121825000Y-111950000D02*
X121675000Y-111950000D01*
G75*
G02*
X121600000Y-111875000I0J75000D01*
G01*
X121600000Y-110475000D01*
G75*
G02*
X121675000Y-110400000I75000J0D01*
G01*
X121825000Y-110400000D01*
G75*
G02*
X121900000Y-110475000I0J-75000D01*
G01*
X121900000Y-111875000D01*
G75*
G02*
X121825000Y-111950000I-75000J0D01*
G01*
G37*
G36*
G01*
X122325000Y-111950000D02*
X122175000Y-111950000D01*
G75*
G02*
X122100000Y-111875000I0J75000D01*
G01*
X122100000Y-110475000D01*
G75*
G02*
X122175000Y-110400000I75000J0D01*
G01*
X122325000Y-110400000D01*
G75*
G02*
X122400000Y-110475000I0J-75000D01*
G01*
X122400000Y-111875000D01*
G75*
G02*
X122325000Y-111950000I-75000J0D01*
G01*
G37*
G36*
G01*
X122825000Y-111950000D02*
X122675000Y-111950000D01*
G75*
G02*
X122600000Y-111875000I0J75000D01*
G01*
X122600000Y-110475000D01*
G75*
G02*
X122675000Y-110400000I75000J0D01*
G01*
X122825000Y-110400000D01*
G75*
G02*
X122900000Y-110475000I0J-75000D01*
G01*
X122900000Y-111875000D01*
G75*
G02*
X122825000Y-111950000I-75000J0D01*
G01*
G37*
G36*
G01*
X123325000Y-111950000D02*
X123175000Y-111950000D01*
G75*
G02*
X123100000Y-111875000I0J75000D01*
G01*
X123100000Y-110475000D01*
G75*
G02*
X123175000Y-110400000I75000J0D01*
G01*
X123325000Y-110400000D01*
G75*
G02*
X123400000Y-110475000I0J-75000D01*
G01*
X123400000Y-111875000D01*
G75*
G02*
X123325000Y-111950000I-75000J0D01*
G01*
G37*
G36*
G01*
X123825000Y-111950000D02*
X123675000Y-111950000D01*
G75*
G02*
X123600000Y-111875000I0J75000D01*
G01*
X123600000Y-110475000D01*
G75*
G02*
X123675000Y-110400000I75000J0D01*
G01*
X123825000Y-110400000D01*
G75*
G02*
X123900000Y-110475000I0J-75000D01*
G01*
X123900000Y-111875000D01*
G75*
G02*
X123825000Y-111950000I-75000J0D01*
G01*
G37*
G36*
G01*
X124325000Y-111950000D02*
X124175000Y-111950000D01*
G75*
G02*
X124100000Y-111875000I0J75000D01*
G01*
X124100000Y-110475000D01*
G75*
G02*
X124175000Y-110400000I75000J0D01*
G01*
X124325000Y-110400000D01*
G75*
G02*
X124400000Y-110475000I0J-75000D01*
G01*
X124400000Y-111875000D01*
G75*
G02*
X124325000Y-111950000I-75000J0D01*
G01*
G37*
G36*
G01*
X124825000Y-111950000D02*
X124675000Y-111950000D01*
G75*
G02*
X124600000Y-111875000I0J75000D01*
G01*
X124600000Y-110475000D01*
G75*
G02*
X124675000Y-110400000I75000J0D01*
G01*
X124825000Y-110400000D01*
G75*
G02*
X124900000Y-110475000I0J-75000D01*
G01*
X124900000Y-111875000D01*
G75*
G02*
X124825000Y-111950000I-75000J0D01*
G01*
G37*
G36*
G01*
X125325000Y-111950000D02*
X125175000Y-111950000D01*
G75*
G02*
X125100000Y-111875000I0J75000D01*
G01*
X125100000Y-110475000D01*
G75*
G02*
X125175000Y-110400000I75000J0D01*
G01*
X125325000Y-110400000D01*
G75*
G02*
X125400000Y-110475000I0J-75000D01*
G01*
X125400000Y-111875000D01*
G75*
G02*
X125325000Y-111950000I-75000J0D01*
G01*
G37*
G36*
G01*
X125825000Y-111950000D02*
X125675000Y-111950000D01*
G75*
G02*
X125600000Y-111875000I0J75000D01*
G01*
X125600000Y-110475000D01*
G75*
G02*
X125675000Y-110400000I75000J0D01*
G01*
X125825000Y-110400000D01*
G75*
G02*
X125900000Y-110475000I0J-75000D01*
G01*
X125900000Y-111875000D01*
G75*
G02*
X125825000Y-111950000I-75000J0D01*
G01*
G37*
G36*
G01*
X126325000Y-111950000D02*
X126175000Y-111950000D01*
G75*
G02*
X126100000Y-111875000I0J75000D01*
G01*
X126100000Y-110475000D01*
G75*
G02*
X126175000Y-110400000I75000J0D01*
G01*
X126325000Y-110400000D01*
G75*
G02*
X126400000Y-110475000I0J-75000D01*
G01*
X126400000Y-111875000D01*
G75*
G02*
X126325000Y-111950000I-75000J0D01*
G01*
G37*
G36*
G01*
X126825000Y-111950000D02*
X126675000Y-111950000D01*
G75*
G02*
X126600000Y-111875000I0J75000D01*
G01*
X126600000Y-110475000D01*
G75*
G02*
X126675000Y-110400000I75000J0D01*
G01*
X126825000Y-110400000D01*
G75*
G02*
X126900000Y-110475000I0J-75000D01*
G01*
X126900000Y-111875000D01*
G75*
G02*
X126825000Y-111950000I-75000J0D01*
G01*
G37*
G36*
G01*
X129375000Y-109400000D02*
X127975000Y-109400000D01*
G75*
G02*
X127900000Y-109325000I0J75000D01*
G01*
X127900000Y-109175000D01*
G75*
G02*
X127975000Y-109100000I75000J0D01*
G01*
X129375000Y-109100000D01*
G75*
G02*
X129450000Y-109175000I0J-75000D01*
G01*
X129450000Y-109325000D01*
G75*
G02*
X129375000Y-109400000I-75000J0D01*
G01*
G37*
G36*
G01*
X129375000Y-108900000D02*
X127975000Y-108900000D01*
G75*
G02*
X127900000Y-108825000I0J75000D01*
G01*
X127900000Y-108675000D01*
G75*
G02*
X127975000Y-108600000I75000J0D01*
G01*
X129375000Y-108600000D01*
G75*
G02*
X129450000Y-108675000I0J-75000D01*
G01*
X129450000Y-108825000D01*
G75*
G02*
X129375000Y-108900000I-75000J0D01*
G01*
G37*
G36*
G01*
X129375000Y-108400000D02*
X127975000Y-108400000D01*
G75*
G02*
X127900000Y-108325000I0J75000D01*
G01*
X127900000Y-108175000D01*
G75*
G02*
X127975000Y-108100000I75000J0D01*
G01*
X129375000Y-108100000D01*
G75*
G02*
X129450000Y-108175000I0J-75000D01*
G01*
X129450000Y-108325000D01*
G75*
G02*
X129375000Y-108400000I-75000J0D01*
G01*
G37*
G36*
G01*
X129375000Y-107900000D02*
X127975000Y-107900000D01*
G75*
G02*
X127900000Y-107825000I0J75000D01*
G01*
X127900000Y-107675000D01*
G75*
G02*
X127975000Y-107600000I75000J0D01*
G01*
X129375000Y-107600000D01*
G75*
G02*
X129450000Y-107675000I0J-75000D01*
G01*
X129450000Y-107825000D01*
G75*
G02*
X129375000Y-107900000I-75000J0D01*
G01*
G37*
G36*
G01*
X129375000Y-107400000D02*
X127975000Y-107400000D01*
G75*
G02*
X127900000Y-107325000I0J75000D01*
G01*
X127900000Y-107175000D01*
G75*
G02*
X127975000Y-107100000I75000J0D01*
G01*
X129375000Y-107100000D01*
G75*
G02*
X129450000Y-107175000I0J-75000D01*
G01*
X129450000Y-107325000D01*
G75*
G02*
X129375000Y-107400000I-75000J0D01*
G01*
G37*
G36*
G01*
X129375000Y-106900000D02*
X127975000Y-106900000D01*
G75*
G02*
X127900000Y-106825000I0J75000D01*
G01*
X127900000Y-106675000D01*
G75*
G02*
X127975000Y-106600000I75000J0D01*
G01*
X129375000Y-106600000D01*
G75*
G02*
X129450000Y-106675000I0J-75000D01*
G01*
X129450000Y-106825000D01*
G75*
G02*
X129375000Y-106900000I-75000J0D01*
G01*
G37*
G36*
G01*
X129375000Y-106400000D02*
X127975000Y-106400000D01*
G75*
G02*
X127900000Y-106325000I0J75000D01*
G01*
X127900000Y-106175000D01*
G75*
G02*
X127975000Y-106100000I75000J0D01*
G01*
X129375000Y-106100000D01*
G75*
G02*
X129450000Y-106175000I0J-75000D01*
G01*
X129450000Y-106325000D01*
G75*
G02*
X129375000Y-106400000I-75000J0D01*
G01*
G37*
G36*
G01*
X129375000Y-105900000D02*
X127975000Y-105900000D01*
G75*
G02*
X127900000Y-105825000I0J75000D01*
G01*
X127900000Y-105675000D01*
G75*
G02*
X127975000Y-105600000I75000J0D01*
G01*
X129375000Y-105600000D01*
G75*
G02*
X129450000Y-105675000I0J-75000D01*
G01*
X129450000Y-105825000D01*
G75*
G02*
X129375000Y-105900000I-75000J0D01*
G01*
G37*
G36*
G01*
X129375000Y-105400000D02*
X127975000Y-105400000D01*
G75*
G02*
X127900000Y-105325000I0J75000D01*
G01*
X127900000Y-105175000D01*
G75*
G02*
X127975000Y-105100000I75000J0D01*
G01*
X129375000Y-105100000D01*
G75*
G02*
X129450000Y-105175000I0J-75000D01*
G01*
X129450000Y-105325000D01*
G75*
G02*
X129375000Y-105400000I-75000J0D01*
G01*
G37*
G36*
G01*
X129375000Y-104900000D02*
X127975000Y-104900000D01*
G75*
G02*
X127900000Y-104825000I0J75000D01*
G01*
X127900000Y-104675000D01*
G75*
G02*
X127975000Y-104600000I75000J0D01*
G01*
X129375000Y-104600000D01*
G75*
G02*
X129450000Y-104675000I0J-75000D01*
G01*
X129450000Y-104825000D01*
G75*
G02*
X129375000Y-104900000I-75000J0D01*
G01*
G37*
G36*
G01*
X129375000Y-104400000D02*
X127975000Y-104400000D01*
G75*
G02*
X127900000Y-104325000I0J75000D01*
G01*
X127900000Y-104175000D01*
G75*
G02*
X127975000Y-104100000I75000J0D01*
G01*
X129375000Y-104100000D01*
G75*
G02*
X129450000Y-104175000I0J-75000D01*
G01*
X129450000Y-104325000D01*
G75*
G02*
X129375000Y-104400000I-75000J0D01*
G01*
G37*
G36*
G01*
X129375000Y-103900000D02*
X127975000Y-103900000D01*
G75*
G02*
X127900000Y-103825000I0J75000D01*
G01*
X127900000Y-103675000D01*
G75*
G02*
X127975000Y-103600000I75000J0D01*
G01*
X129375000Y-103600000D01*
G75*
G02*
X129450000Y-103675000I0J-75000D01*
G01*
X129450000Y-103825000D01*
G75*
G02*
X129375000Y-103900000I-75000J0D01*
G01*
G37*
G36*
G01*
X129375000Y-103400000D02*
X127975000Y-103400000D01*
G75*
G02*
X127900000Y-103325000I0J75000D01*
G01*
X127900000Y-103175000D01*
G75*
G02*
X127975000Y-103100000I75000J0D01*
G01*
X129375000Y-103100000D01*
G75*
G02*
X129450000Y-103175000I0J-75000D01*
G01*
X129450000Y-103325000D01*
G75*
G02*
X129375000Y-103400000I-75000J0D01*
G01*
G37*
G36*
G01*
X129375000Y-102900000D02*
X127975000Y-102900000D01*
G75*
G02*
X127900000Y-102825000I0J75000D01*
G01*
X127900000Y-102675000D01*
G75*
G02*
X127975000Y-102600000I75000J0D01*
G01*
X129375000Y-102600000D01*
G75*
G02*
X129450000Y-102675000I0J-75000D01*
G01*
X129450000Y-102825000D01*
G75*
G02*
X129375000Y-102900000I-75000J0D01*
G01*
G37*
G36*
G01*
X129375000Y-102400000D02*
X127975000Y-102400000D01*
G75*
G02*
X127900000Y-102325000I0J75000D01*
G01*
X127900000Y-102175000D01*
G75*
G02*
X127975000Y-102100000I75000J0D01*
G01*
X129375000Y-102100000D01*
G75*
G02*
X129450000Y-102175000I0J-75000D01*
G01*
X129450000Y-102325000D01*
G75*
G02*
X129375000Y-102400000I-75000J0D01*
G01*
G37*
G36*
G01*
X129375000Y-101900000D02*
X127975000Y-101900000D01*
G75*
G02*
X127900000Y-101825000I0J75000D01*
G01*
X127900000Y-101675000D01*
G75*
G02*
X127975000Y-101600000I75000J0D01*
G01*
X129375000Y-101600000D01*
G75*
G02*
X129450000Y-101675000I0J-75000D01*
G01*
X129450000Y-101825000D01*
G75*
G02*
X129375000Y-101900000I-75000J0D01*
G01*
G37*
G36*
G01*
X126825000Y-100600000D02*
X126675000Y-100600000D01*
G75*
G02*
X126600000Y-100525000I0J75000D01*
G01*
X126600000Y-99125000D01*
G75*
G02*
X126675000Y-99050000I75000J0D01*
G01*
X126825000Y-99050000D01*
G75*
G02*
X126900000Y-99125000I0J-75000D01*
G01*
X126900000Y-100525000D01*
G75*
G02*
X126825000Y-100600000I-75000J0D01*
G01*
G37*
G36*
G01*
X126325000Y-100600000D02*
X126175000Y-100600000D01*
G75*
G02*
X126100000Y-100525000I0J75000D01*
G01*
X126100000Y-99125000D01*
G75*
G02*
X126175000Y-99050000I75000J0D01*
G01*
X126325000Y-99050000D01*
G75*
G02*
X126400000Y-99125000I0J-75000D01*
G01*
X126400000Y-100525000D01*
G75*
G02*
X126325000Y-100600000I-75000J0D01*
G01*
G37*
G36*
G01*
X125825000Y-100600000D02*
X125675000Y-100600000D01*
G75*
G02*
X125600000Y-100525000I0J75000D01*
G01*
X125600000Y-99125000D01*
G75*
G02*
X125675000Y-99050000I75000J0D01*
G01*
X125825000Y-99050000D01*
G75*
G02*
X125900000Y-99125000I0J-75000D01*
G01*
X125900000Y-100525000D01*
G75*
G02*
X125825000Y-100600000I-75000J0D01*
G01*
G37*
G36*
G01*
X125325000Y-100600000D02*
X125175000Y-100600000D01*
G75*
G02*
X125100000Y-100525000I0J75000D01*
G01*
X125100000Y-99125000D01*
G75*
G02*
X125175000Y-99050000I75000J0D01*
G01*
X125325000Y-99050000D01*
G75*
G02*
X125400000Y-99125000I0J-75000D01*
G01*
X125400000Y-100525000D01*
G75*
G02*
X125325000Y-100600000I-75000J0D01*
G01*
G37*
G36*
G01*
X124825000Y-100600000D02*
X124675000Y-100600000D01*
G75*
G02*
X124600000Y-100525000I0J75000D01*
G01*
X124600000Y-99125000D01*
G75*
G02*
X124675000Y-99050000I75000J0D01*
G01*
X124825000Y-99050000D01*
G75*
G02*
X124900000Y-99125000I0J-75000D01*
G01*
X124900000Y-100525000D01*
G75*
G02*
X124825000Y-100600000I-75000J0D01*
G01*
G37*
G36*
G01*
X124325000Y-100600000D02*
X124175000Y-100600000D01*
G75*
G02*
X124100000Y-100525000I0J75000D01*
G01*
X124100000Y-99125000D01*
G75*
G02*
X124175000Y-99050000I75000J0D01*
G01*
X124325000Y-99050000D01*
G75*
G02*
X124400000Y-99125000I0J-75000D01*
G01*
X124400000Y-100525000D01*
G75*
G02*
X124325000Y-100600000I-75000J0D01*
G01*
G37*
G36*
G01*
X123825000Y-100600000D02*
X123675000Y-100600000D01*
G75*
G02*
X123600000Y-100525000I0J75000D01*
G01*
X123600000Y-99125000D01*
G75*
G02*
X123675000Y-99050000I75000J0D01*
G01*
X123825000Y-99050000D01*
G75*
G02*
X123900000Y-99125000I0J-75000D01*
G01*
X123900000Y-100525000D01*
G75*
G02*
X123825000Y-100600000I-75000J0D01*
G01*
G37*
G36*
G01*
X123325000Y-100600000D02*
X123175000Y-100600000D01*
G75*
G02*
X123100000Y-100525000I0J75000D01*
G01*
X123100000Y-99125000D01*
G75*
G02*
X123175000Y-99050000I75000J0D01*
G01*
X123325000Y-99050000D01*
G75*
G02*
X123400000Y-99125000I0J-75000D01*
G01*
X123400000Y-100525000D01*
G75*
G02*
X123325000Y-100600000I-75000J0D01*
G01*
G37*
G36*
G01*
X122825000Y-100600000D02*
X122675000Y-100600000D01*
G75*
G02*
X122600000Y-100525000I0J75000D01*
G01*
X122600000Y-99125000D01*
G75*
G02*
X122675000Y-99050000I75000J0D01*
G01*
X122825000Y-99050000D01*
G75*
G02*
X122900000Y-99125000I0J-75000D01*
G01*
X122900000Y-100525000D01*
G75*
G02*
X122825000Y-100600000I-75000J0D01*
G01*
G37*
G36*
G01*
X122325000Y-100600000D02*
X122175000Y-100600000D01*
G75*
G02*
X122100000Y-100525000I0J75000D01*
G01*
X122100000Y-99125000D01*
G75*
G02*
X122175000Y-99050000I75000J0D01*
G01*
X122325000Y-99050000D01*
G75*
G02*
X122400000Y-99125000I0J-75000D01*
G01*
X122400000Y-100525000D01*
G75*
G02*
X122325000Y-100600000I-75000J0D01*
G01*
G37*
G36*
G01*
X121825000Y-100600000D02*
X121675000Y-100600000D01*
G75*
G02*
X121600000Y-100525000I0J75000D01*
G01*
X121600000Y-99125000D01*
G75*
G02*
X121675000Y-99050000I75000J0D01*
G01*
X121825000Y-99050000D01*
G75*
G02*
X121900000Y-99125000I0J-75000D01*
G01*
X121900000Y-100525000D01*
G75*
G02*
X121825000Y-100600000I-75000J0D01*
G01*
G37*
G36*
G01*
X121325000Y-100600000D02*
X121175000Y-100600000D01*
G75*
G02*
X121100000Y-100525000I0J75000D01*
G01*
X121100000Y-99125000D01*
G75*
G02*
X121175000Y-99050000I75000J0D01*
G01*
X121325000Y-99050000D01*
G75*
G02*
X121400000Y-99125000I0J-75000D01*
G01*
X121400000Y-100525000D01*
G75*
G02*
X121325000Y-100600000I-75000J0D01*
G01*
G37*
G36*
G01*
X120825000Y-100600000D02*
X120675000Y-100600000D01*
G75*
G02*
X120600000Y-100525000I0J75000D01*
G01*
X120600000Y-99125000D01*
G75*
G02*
X120675000Y-99050000I75000J0D01*
G01*
X120825000Y-99050000D01*
G75*
G02*
X120900000Y-99125000I0J-75000D01*
G01*
X120900000Y-100525000D01*
G75*
G02*
X120825000Y-100600000I-75000J0D01*
G01*
G37*
G36*
G01*
X120325000Y-100600000D02*
X120175000Y-100600000D01*
G75*
G02*
X120100000Y-100525000I0J75000D01*
G01*
X120100000Y-99125000D01*
G75*
G02*
X120175000Y-99050000I75000J0D01*
G01*
X120325000Y-99050000D01*
G75*
G02*
X120400000Y-99125000I0J-75000D01*
G01*
X120400000Y-100525000D01*
G75*
G02*
X120325000Y-100600000I-75000J0D01*
G01*
G37*
G36*
G01*
X119825000Y-100600000D02*
X119675000Y-100600000D01*
G75*
G02*
X119600000Y-100525000I0J75000D01*
G01*
X119600000Y-99125000D01*
G75*
G02*
X119675000Y-99050000I75000J0D01*
G01*
X119825000Y-99050000D01*
G75*
G02*
X119900000Y-99125000I0J-75000D01*
G01*
X119900000Y-100525000D01*
G75*
G02*
X119825000Y-100600000I-75000J0D01*
G01*
G37*
G36*
G01*
X119325000Y-100600000D02*
X119175000Y-100600000D01*
G75*
G02*
X119100000Y-100525000I0J75000D01*
G01*
X119100000Y-99125000D01*
G75*
G02*
X119175000Y-99050000I75000J0D01*
G01*
X119325000Y-99050000D01*
G75*
G02*
X119400000Y-99125000I0J-75000D01*
G01*
X119400000Y-100525000D01*
G75*
G02*
X119325000Y-100600000I-75000J0D01*
G01*
G37*
G36*
G01*
X118025000Y-101900000D02*
X116625000Y-101900000D01*
G75*
G02*
X116550000Y-101825000I0J75000D01*
G01*
X116550000Y-101675000D01*
G75*
G02*
X116625000Y-101600000I75000J0D01*
G01*
X118025000Y-101600000D01*
G75*
G02*
X118100000Y-101675000I0J-75000D01*
G01*
X118100000Y-101825000D01*
G75*
G02*
X118025000Y-101900000I-75000J0D01*
G01*
G37*
G36*
G01*
X118025000Y-102400000D02*
X116625000Y-102400000D01*
G75*
G02*
X116550000Y-102325000I0J75000D01*
G01*
X116550000Y-102175000D01*
G75*
G02*
X116625000Y-102100000I75000J0D01*
G01*
X118025000Y-102100000D01*
G75*
G02*
X118100000Y-102175000I0J-75000D01*
G01*
X118100000Y-102325000D01*
G75*
G02*
X118025000Y-102400000I-75000J0D01*
G01*
G37*
G36*
G01*
X118025000Y-102900000D02*
X116625000Y-102900000D01*
G75*
G02*
X116550000Y-102825000I0J75000D01*
G01*
X116550000Y-102675000D01*
G75*
G02*
X116625000Y-102600000I75000J0D01*
G01*
X118025000Y-102600000D01*
G75*
G02*
X118100000Y-102675000I0J-75000D01*
G01*
X118100000Y-102825000D01*
G75*
G02*
X118025000Y-102900000I-75000J0D01*
G01*
G37*
G36*
G01*
X118025000Y-103400000D02*
X116625000Y-103400000D01*
G75*
G02*
X116550000Y-103325000I0J75000D01*
G01*
X116550000Y-103175000D01*
G75*
G02*
X116625000Y-103100000I75000J0D01*
G01*
X118025000Y-103100000D01*
G75*
G02*
X118100000Y-103175000I0J-75000D01*
G01*
X118100000Y-103325000D01*
G75*
G02*
X118025000Y-103400000I-75000J0D01*
G01*
G37*
G36*
G01*
X118025000Y-103900000D02*
X116625000Y-103900000D01*
G75*
G02*
X116550000Y-103825000I0J75000D01*
G01*
X116550000Y-103675000D01*
G75*
G02*
X116625000Y-103600000I75000J0D01*
G01*
X118025000Y-103600000D01*
G75*
G02*
X118100000Y-103675000I0J-75000D01*
G01*
X118100000Y-103825000D01*
G75*
G02*
X118025000Y-103900000I-75000J0D01*
G01*
G37*
G36*
G01*
X118025000Y-104400000D02*
X116625000Y-104400000D01*
G75*
G02*
X116550000Y-104325000I0J75000D01*
G01*
X116550000Y-104175000D01*
G75*
G02*
X116625000Y-104100000I75000J0D01*
G01*
X118025000Y-104100000D01*
G75*
G02*
X118100000Y-104175000I0J-75000D01*
G01*
X118100000Y-104325000D01*
G75*
G02*
X118025000Y-104400000I-75000J0D01*
G01*
G37*
G36*
G01*
X118025000Y-104900000D02*
X116625000Y-104900000D01*
G75*
G02*
X116550000Y-104825000I0J75000D01*
G01*
X116550000Y-104675000D01*
G75*
G02*
X116625000Y-104600000I75000J0D01*
G01*
X118025000Y-104600000D01*
G75*
G02*
X118100000Y-104675000I0J-75000D01*
G01*
X118100000Y-104825000D01*
G75*
G02*
X118025000Y-104900000I-75000J0D01*
G01*
G37*
G36*
G01*
X118025000Y-105400000D02*
X116625000Y-105400000D01*
G75*
G02*
X116550000Y-105325000I0J75000D01*
G01*
X116550000Y-105175000D01*
G75*
G02*
X116625000Y-105100000I75000J0D01*
G01*
X118025000Y-105100000D01*
G75*
G02*
X118100000Y-105175000I0J-75000D01*
G01*
X118100000Y-105325000D01*
G75*
G02*
X118025000Y-105400000I-75000J0D01*
G01*
G37*
G36*
G01*
X118025000Y-105900000D02*
X116625000Y-105900000D01*
G75*
G02*
X116550000Y-105825000I0J75000D01*
G01*
X116550000Y-105675000D01*
G75*
G02*
X116625000Y-105600000I75000J0D01*
G01*
X118025000Y-105600000D01*
G75*
G02*
X118100000Y-105675000I0J-75000D01*
G01*
X118100000Y-105825000D01*
G75*
G02*
X118025000Y-105900000I-75000J0D01*
G01*
G37*
G36*
G01*
X118025000Y-106400000D02*
X116625000Y-106400000D01*
G75*
G02*
X116550000Y-106325000I0J75000D01*
G01*
X116550000Y-106175000D01*
G75*
G02*
X116625000Y-106100000I75000J0D01*
G01*
X118025000Y-106100000D01*
G75*
G02*
X118100000Y-106175000I0J-75000D01*
G01*
X118100000Y-106325000D01*
G75*
G02*
X118025000Y-106400000I-75000J0D01*
G01*
G37*
G36*
G01*
X118025000Y-106900000D02*
X116625000Y-106900000D01*
G75*
G02*
X116550000Y-106825000I0J75000D01*
G01*
X116550000Y-106675000D01*
G75*
G02*
X116625000Y-106600000I75000J0D01*
G01*
X118025000Y-106600000D01*
G75*
G02*
X118100000Y-106675000I0J-75000D01*
G01*
X118100000Y-106825000D01*
G75*
G02*
X118025000Y-106900000I-75000J0D01*
G01*
G37*
G36*
G01*
X118025000Y-107400000D02*
X116625000Y-107400000D01*
G75*
G02*
X116550000Y-107325000I0J75000D01*
G01*
X116550000Y-107175000D01*
G75*
G02*
X116625000Y-107100000I75000J0D01*
G01*
X118025000Y-107100000D01*
G75*
G02*
X118100000Y-107175000I0J-75000D01*
G01*
X118100000Y-107325000D01*
G75*
G02*
X118025000Y-107400000I-75000J0D01*
G01*
G37*
G36*
G01*
X118025000Y-107900000D02*
X116625000Y-107900000D01*
G75*
G02*
X116550000Y-107825000I0J75000D01*
G01*
X116550000Y-107675000D01*
G75*
G02*
X116625000Y-107600000I75000J0D01*
G01*
X118025000Y-107600000D01*
G75*
G02*
X118100000Y-107675000I0J-75000D01*
G01*
X118100000Y-107825000D01*
G75*
G02*
X118025000Y-107900000I-75000J0D01*
G01*
G37*
G36*
G01*
X118025000Y-108400000D02*
X116625000Y-108400000D01*
G75*
G02*
X116550000Y-108325000I0J75000D01*
G01*
X116550000Y-108175000D01*
G75*
G02*
X116625000Y-108100000I75000J0D01*
G01*
X118025000Y-108100000D01*
G75*
G02*
X118100000Y-108175000I0J-75000D01*
G01*
X118100000Y-108325000D01*
G75*
G02*
X118025000Y-108400000I-75000J0D01*
G01*
G37*
G36*
G01*
X118025000Y-108900000D02*
X116625000Y-108900000D01*
G75*
G02*
X116550000Y-108825000I0J75000D01*
G01*
X116550000Y-108675000D01*
G75*
G02*
X116625000Y-108600000I75000J0D01*
G01*
X118025000Y-108600000D01*
G75*
G02*
X118100000Y-108675000I0J-75000D01*
G01*
X118100000Y-108825000D01*
G75*
G02*
X118025000Y-108900000I-75000J0D01*
G01*
G37*
G36*
G01*
X118025000Y-109400000D02*
X116625000Y-109400000D01*
G75*
G02*
X116550000Y-109325000I0J75000D01*
G01*
X116550000Y-109175000D01*
G75*
G02*
X116625000Y-109100000I75000J0D01*
G01*
X118025000Y-109100000D01*
G75*
G02*
X118100000Y-109175000I0J-75000D01*
G01*
X118100000Y-109325000D01*
G75*
G02*
X118025000Y-109400000I-75000J0D01*
G01*
G37*
%TD*%
%TO.C,R7*%
G36*
G01*
X182300000Y-117125001D02*
X182300000Y-115874999D01*
G75*
G02*
X182549999Y-115625000I249999J0D01*
G01*
X183350001Y-115625000D01*
G75*
G02*
X183600000Y-115874999I0J-249999D01*
G01*
X183600000Y-117125001D01*
G75*
G02*
X183350001Y-117375000I-249999J0D01*
G01*
X182549999Y-117375000D01*
G75*
G02*
X182300000Y-117125001I0J249999D01*
G01*
G37*
G36*
G01*
X185400000Y-117125001D02*
X185400000Y-115874999D01*
G75*
G02*
X185649999Y-115625000I249999J0D01*
G01*
X186450001Y-115625000D01*
G75*
G02*
X186700000Y-115874999I0J-249999D01*
G01*
X186700000Y-117125001D01*
G75*
G02*
X186450001Y-117375000I-249999J0D01*
G01*
X185649999Y-117375000D01*
G75*
G02*
X185400000Y-117125001I0J249999D01*
G01*
G37*
%TD*%
%TO.C,R19*%
G36*
G01*
X203374999Y-118900000D02*
X204625001Y-118900000D01*
G75*
G02*
X204875000Y-119149999I0J-249999D01*
G01*
X204875000Y-119950001D01*
G75*
G02*
X204625001Y-120200000I-249999J0D01*
G01*
X203374999Y-120200000D01*
G75*
G02*
X203125000Y-119950001I0J249999D01*
G01*
X203125000Y-119149999D01*
G75*
G02*
X203374999Y-118900000I249999J0D01*
G01*
G37*
G36*
G01*
X203374999Y-115800000D02*
X204625001Y-115800000D01*
G75*
G02*
X204875000Y-116049999I0J-249999D01*
G01*
X204875000Y-116850001D01*
G75*
G02*
X204625001Y-117100000I-249999J0D01*
G01*
X203374999Y-117100000D01*
G75*
G02*
X203125000Y-116850001I0J249999D01*
G01*
X203125000Y-116049999D01*
G75*
G02*
X203374999Y-115800000I249999J0D01*
G01*
G37*
%TD*%
%TO.C,C1*%
G36*
G01*
X176450000Y-55700002D02*
X176450000Y-54399998D01*
G75*
G02*
X176699998Y-54150000I249998J0D01*
G01*
X177525002Y-54150000D01*
G75*
G02*
X177775000Y-54399998I0J-249998D01*
G01*
X177775000Y-55700002D01*
G75*
G02*
X177525002Y-55950000I-249998J0D01*
G01*
X176699998Y-55950000D01*
G75*
G02*
X176450000Y-55700002I0J249998D01*
G01*
G37*
G36*
G01*
X173325000Y-55700002D02*
X173325000Y-54399998D01*
G75*
G02*
X173574998Y-54150000I249998J0D01*
G01*
X174400002Y-54150000D01*
G75*
G02*
X174650000Y-54399998I0J-249998D01*
G01*
X174650000Y-55700002D01*
G75*
G02*
X174400002Y-55950000I-249998J0D01*
G01*
X173574998Y-55950000D01*
G75*
G02*
X173325000Y-55700002I0J249998D01*
G01*
G37*
%TD*%
%TO.C,C2*%
G36*
G01*
X148200002Y-52050000D02*
X146899998Y-52050000D01*
G75*
G02*
X146650000Y-51800002I0J249998D01*
G01*
X146650000Y-50974998D01*
G75*
G02*
X146899998Y-50725000I249998J0D01*
G01*
X148200002Y-50725000D01*
G75*
G02*
X148450000Y-50974998I0J-249998D01*
G01*
X148450000Y-51800002D01*
G75*
G02*
X148200002Y-52050000I-249998J0D01*
G01*
G37*
G36*
G01*
X148200002Y-55175000D02*
X146899998Y-55175000D01*
G75*
G02*
X146650000Y-54925002I0J249998D01*
G01*
X146650000Y-54099998D01*
G75*
G02*
X146899998Y-53850000I249998J0D01*
G01*
X148200002Y-53850000D01*
G75*
G02*
X148450000Y-54099998I0J-249998D01*
G01*
X148450000Y-54925002D01*
G75*
G02*
X148200002Y-55175000I-249998J0D01*
G01*
G37*
%TD*%
%TO.C,C3*%
G36*
G01*
X134700002Y-59550000D02*
X133399998Y-59550000D01*
G75*
G02*
X133150000Y-59300002I0J249998D01*
G01*
X133150000Y-58474998D01*
G75*
G02*
X133399998Y-58225000I249998J0D01*
G01*
X134700002Y-58225000D01*
G75*
G02*
X134950000Y-58474998I0J-249998D01*
G01*
X134950000Y-59300002D01*
G75*
G02*
X134700002Y-59550000I-249998J0D01*
G01*
G37*
G36*
G01*
X134700002Y-62675000D02*
X133399998Y-62675000D01*
G75*
G02*
X133150000Y-62425002I0J249998D01*
G01*
X133150000Y-61599998D01*
G75*
G02*
X133399998Y-61350000I249998J0D01*
G01*
X134700002Y-61350000D01*
G75*
G02*
X134950000Y-61599998I0J-249998D01*
G01*
X134950000Y-62425002D01*
G75*
G02*
X134700002Y-62675000I-249998J0D01*
G01*
G37*
%TD*%
%TO.C,C4*%
G36*
G01*
X166500000Y-50400000D02*
X164500000Y-50400000D01*
G75*
G02*
X164250000Y-50150000I0J250000D01*
G01*
X164250000Y-46250000D01*
G75*
G02*
X164500000Y-46000000I250000J0D01*
G01*
X166500000Y-46000000D01*
G75*
G02*
X166750000Y-46250000I0J-250000D01*
G01*
X166750000Y-50150000D01*
G75*
G02*
X166500000Y-50400000I-250000J0D01*
G01*
G37*
G36*
G01*
X166500000Y-42000000D02*
X164500000Y-42000000D01*
G75*
G02*
X164250000Y-41750000I0J250000D01*
G01*
X164250000Y-37850000D01*
G75*
G02*
X164500000Y-37600000I250000J0D01*
G01*
X166500000Y-37600000D01*
G75*
G02*
X166750000Y-37850000I0J-250000D01*
G01*
X166750000Y-41750000D01*
G75*
G02*
X166500000Y-42000000I-250000J0D01*
G01*
G37*
%TD*%
%TO.C,C5*%
G36*
G01*
X153500000Y-42000000D02*
X151500000Y-42000000D01*
G75*
G02*
X151250000Y-41750000I0J250000D01*
G01*
X151250000Y-37850000D01*
G75*
G02*
X151500000Y-37600000I250000J0D01*
G01*
X153500000Y-37600000D01*
G75*
G02*
X153750000Y-37850000I0J-250000D01*
G01*
X153750000Y-41750000D01*
G75*
G02*
X153500000Y-42000000I-250000J0D01*
G01*
G37*
G36*
G01*
X153500000Y-50400000D02*
X151500000Y-50400000D01*
G75*
G02*
X151250000Y-50150000I0J250000D01*
G01*
X151250000Y-46250000D01*
G75*
G02*
X151500000Y-46000000I250000J0D01*
G01*
X153500000Y-46000000D01*
G75*
G02*
X153750000Y-46250000I0J-250000D01*
G01*
X153750000Y-50150000D01*
G75*
G02*
X153500000Y-50400000I-250000J0D01*
G01*
G37*
%TD*%
%TO.C,C6*%
G36*
G01*
X127550000Y-41450000D02*
X126450000Y-41450000D01*
G75*
G02*
X126200000Y-41200000I0J250000D01*
G01*
X126200000Y-38200000D01*
G75*
G02*
X126450000Y-37950000I250000J0D01*
G01*
X127550000Y-37950000D01*
G75*
G02*
X127800000Y-38200000I0J-250000D01*
G01*
X127800000Y-41200000D01*
G75*
G02*
X127550000Y-41450000I-250000J0D01*
G01*
G37*
G36*
G01*
X127550000Y-47050000D02*
X126450000Y-47050000D01*
G75*
G02*
X126200000Y-46800000I0J250000D01*
G01*
X126200000Y-43800000D01*
G75*
G02*
X126450000Y-43550000I250000J0D01*
G01*
X127550000Y-43550000D01*
G75*
G02*
X127800000Y-43800000I0J-250000D01*
G01*
X127800000Y-46800000D01*
G75*
G02*
X127550000Y-47050000I-250000J0D01*
G01*
G37*
%TD*%
%TO.C,C7*%
G36*
G01*
X125525000Y-61925001D02*
X125525000Y-61074999D01*
G75*
G02*
X125774999Y-60825000I249999J0D01*
G01*
X126850001Y-60825000D01*
G75*
G02*
X127100000Y-61074999I0J-249999D01*
G01*
X127100000Y-61925001D01*
G75*
G02*
X126850001Y-62175000I-249999J0D01*
G01*
X125774999Y-62175000D01*
G75*
G02*
X125525000Y-61925001I0J249999D01*
G01*
G37*
G36*
G01*
X128400000Y-61925001D02*
X128400000Y-61074999D01*
G75*
G02*
X128649999Y-60825000I249999J0D01*
G01*
X129725001Y-60825000D01*
G75*
G02*
X129975000Y-61074999I0J-249999D01*
G01*
X129975000Y-61925001D01*
G75*
G02*
X129725001Y-62175000I-249999J0D01*
G01*
X128649999Y-62175000D01*
G75*
G02*
X128400000Y-61925001I0J249999D01*
G01*
G37*
%TD*%
%TO.C,C8*%
G36*
G01*
X186500000Y-50400000D02*
X184500000Y-50400000D01*
G75*
G02*
X184250000Y-50150000I0J250000D01*
G01*
X184250000Y-46250000D01*
G75*
G02*
X184500000Y-46000000I250000J0D01*
G01*
X186500000Y-46000000D01*
G75*
G02*
X186750000Y-46250000I0J-250000D01*
G01*
X186750000Y-50150000D01*
G75*
G02*
X186500000Y-50400000I-250000J0D01*
G01*
G37*
G36*
G01*
X186500000Y-42000000D02*
X184500000Y-42000000D01*
G75*
G02*
X184250000Y-41750000I0J250000D01*
G01*
X184250000Y-37850000D01*
G75*
G02*
X184500000Y-37600000I250000J0D01*
G01*
X186500000Y-37600000D01*
G75*
G02*
X186750000Y-37850000I0J-250000D01*
G01*
X186750000Y-41750000D01*
G75*
G02*
X186500000Y-42000000I-250000J0D01*
G01*
G37*
%TD*%
%TO.C,C9*%
G36*
G01*
X128700000Y-66200002D02*
X128700000Y-64899998D01*
G75*
G02*
X128949998Y-64650000I249998J0D01*
G01*
X129775002Y-64650000D01*
G75*
G02*
X130025000Y-64899998I0J-249998D01*
G01*
X130025000Y-66200002D01*
G75*
G02*
X129775002Y-66450000I-249998J0D01*
G01*
X128949998Y-66450000D01*
G75*
G02*
X128700000Y-66200002I0J249998D01*
G01*
G37*
G36*
G01*
X125575000Y-66200002D02*
X125575000Y-64899998D01*
G75*
G02*
X125824998Y-64650000I249998J0D01*
G01*
X126650002Y-64650000D01*
G75*
G02*
X126900000Y-64899998I0J-249998D01*
G01*
X126900000Y-66200002D01*
G75*
G02*
X126650002Y-66450000I-249998J0D01*
G01*
X125824998Y-66450000D01*
G75*
G02*
X125575000Y-66200002I0J249998D01*
G01*
G37*
%TD*%
%TO.C,C10*%
G36*
G01*
X144400000Y-70000000D02*
X144400000Y-72000000D01*
G75*
G02*
X144150000Y-72250000I-250000J0D01*
G01*
X140250000Y-72250000D01*
G75*
G02*
X140000000Y-72000000I0J250000D01*
G01*
X140000000Y-70000000D01*
G75*
G02*
X140250000Y-69750000I250000J0D01*
G01*
X144150000Y-69750000D01*
G75*
G02*
X144400000Y-70000000I0J-250000D01*
G01*
G37*
G36*
G01*
X136000000Y-70000000D02*
X136000000Y-72000000D01*
G75*
G02*
X135750000Y-72250000I-250000J0D01*
G01*
X131850000Y-72250000D01*
G75*
G02*
X131600000Y-72000000I0J250000D01*
G01*
X131600000Y-70000000D01*
G75*
G02*
X131850000Y-69750000I250000J0D01*
G01*
X135750000Y-69750000D01*
G75*
G02*
X136000000Y-70000000I0J-250000D01*
G01*
G37*
%TD*%
%TO.C,C11*%
G36*
G01*
X164900000Y-70000000D02*
X164900000Y-72000000D01*
G75*
G02*
X164650000Y-72250000I-250000J0D01*
G01*
X160750000Y-72250000D01*
G75*
G02*
X160500000Y-72000000I0J250000D01*
G01*
X160500000Y-70000000D01*
G75*
G02*
X160750000Y-69750000I250000J0D01*
G01*
X164650000Y-69750000D01*
G75*
G02*
X164900000Y-70000000I0J-250000D01*
G01*
G37*
G36*
G01*
X156500000Y-70000000D02*
X156500000Y-72000000D01*
G75*
G02*
X156250000Y-72250000I-250000J0D01*
G01*
X152350000Y-72250000D01*
G75*
G02*
X152100000Y-72000000I0J250000D01*
G01*
X152100000Y-70000000D01*
G75*
G02*
X152350000Y-69750000I250000J0D01*
G01*
X156250000Y-69750000D01*
G75*
G02*
X156500000Y-70000000I0J-250000D01*
G01*
G37*
%TD*%
%TO.C,C12*%
G36*
G01*
X148200002Y-71675000D02*
X146899998Y-71675000D01*
G75*
G02*
X146650000Y-71425002I0J249998D01*
G01*
X146650000Y-70599998D01*
G75*
G02*
X146899998Y-70350000I249998J0D01*
G01*
X148200002Y-70350000D01*
G75*
G02*
X148450000Y-70599998I0J-249998D01*
G01*
X148450000Y-71425002D01*
G75*
G02*
X148200002Y-71675000I-249998J0D01*
G01*
G37*
G36*
G01*
X148200002Y-68550000D02*
X146899998Y-68550000D01*
G75*
G02*
X146650000Y-68300002I0J249998D01*
G01*
X146650000Y-67474998D01*
G75*
G02*
X146899998Y-67225000I249998J0D01*
G01*
X148200002Y-67225000D01*
G75*
G02*
X148450000Y-67474998I0J-249998D01*
G01*
X148450000Y-68300002D01*
G75*
G02*
X148200002Y-68550000I-249998J0D01*
G01*
G37*
%TD*%
%TO.C,C13*%
G36*
G01*
X168700002Y-71675000D02*
X167399998Y-71675000D01*
G75*
G02*
X167150000Y-71425002I0J249998D01*
G01*
X167150000Y-70599998D01*
G75*
G02*
X167399998Y-70350000I249998J0D01*
G01*
X168700002Y-70350000D01*
G75*
G02*
X168950000Y-70599998I0J-249998D01*
G01*
X168950000Y-71425002D01*
G75*
G02*
X168700002Y-71675000I-249998J0D01*
G01*
G37*
G36*
G01*
X168700002Y-68550000D02*
X167399998Y-68550000D01*
G75*
G02*
X167150000Y-68300002I0J249998D01*
G01*
X167150000Y-67474998D01*
G75*
G02*
X167399998Y-67225000I249998J0D01*
G01*
X168700002Y-67225000D01*
G75*
G02*
X168950000Y-67474998I0J-249998D01*
G01*
X168950000Y-68300002D01*
G75*
G02*
X168700002Y-68550000I-249998J0D01*
G01*
G37*
%TD*%
%TO.C,C14*%
G36*
G01*
X99825000Y-71890002D02*
X99825000Y-70589998D01*
G75*
G02*
X100074998Y-70340000I249998J0D01*
G01*
X100900002Y-70340000D01*
G75*
G02*
X101150000Y-70589998I0J-249998D01*
G01*
X101150000Y-71890002D01*
G75*
G02*
X100900002Y-72140000I-249998J0D01*
G01*
X100074998Y-72140000D01*
G75*
G02*
X99825000Y-71890002I0J249998D01*
G01*
G37*
G36*
G01*
X102950000Y-71890002D02*
X102950000Y-70589998D01*
G75*
G02*
X103199998Y-70340000I249998J0D01*
G01*
X104025002Y-70340000D01*
G75*
G02*
X104275000Y-70589998I0J-249998D01*
G01*
X104275000Y-71890002D01*
G75*
G02*
X104025002Y-72140000I-249998J0D01*
G01*
X103199998Y-72140000D01*
G75*
G02*
X102950000Y-71890002I0J249998D01*
G01*
G37*
%TD*%
%TO.C,C26*%
G36*
G01*
X116600000Y-124299998D02*
X116600000Y-125600002D01*
G75*
G02*
X116350002Y-125850000I-249998J0D01*
G01*
X115524998Y-125850000D01*
G75*
G02*
X115275000Y-125600002I0J249998D01*
G01*
X115275000Y-124299998D01*
G75*
G02*
X115524998Y-124050000I249998J0D01*
G01*
X116350002Y-124050000D01*
G75*
G02*
X116600000Y-124299998I0J-249998D01*
G01*
G37*
G36*
G01*
X119725000Y-124299998D02*
X119725000Y-125600002D01*
G75*
G02*
X119475002Y-125850000I-249998J0D01*
G01*
X118649998Y-125850000D01*
G75*
G02*
X118400000Y-125600002I0J249998D01*
G01*
X118400000Y-124299998D01*
G75*
G02*
X118649998Y-124050000I249998J0D01*
G01*
X119475002Y-124050000D01*
G75*
G02*
X119725000Y-124299998I0J-249998D01*
G01*
G37*
%TD*%
%TO.C,C27*%
G36*
G01*
X123285000Y-125600002D02*
X123285000Y-124299998D01*
G75*
G02*
X123534998Y-124050000I249998J0D01*
G01*
X124360002Y-124050000D01*
G75*
G02*
X124610000Y-124299998I0J-249998D01*
G01*
X124610000Y-125600002D01*
G75*
G02*
X124360002Y-125850000I-249998J0D01*
G01*
X123534998Y-125850000D01*
G75*
G02*
X123285000Y-125600002I0J249998D01*
G01*
G37*
G36*
G01*
X126410000Y-125600002D02*
X126410000Y-124299998D01*
G75*
G02*
X126659998Y-124050000I249998J0D01*
G01*
X127485002Y-124050000D01*
G75*
G02*
X127735000Y-124299998I0J-249998D01*
G01*
X127735000Y-125600002D01*
G75*
G02*
X127485002Y-125850000I-249998J0D01*
G01*
X126659998Y-125850000D01*
G75*
G02*
X126410000Y-125600002I0J249998D01*
G01*
G37*
%TD*%
%TO.C,C30*%
G36*
G01*
X176075000Y-88135000D02*
X177925000Y-88135000D01*
G75*
G02*
X178175000Y-88385000I0J-250000D01*
G01*
X178175000Y-89385000D01*
G75*
G02*
X177925000Y-89635000I-250000J0D01*
G01*
X176075000Y-89635000D01*
G75*
G02*
X175825000Y-89385000I0J250000D01*
G01*
X175825000Y-88385000D01*
G75*
G02*
X176075000Y-88135000I250000J0D01*
G01*
G37*
G36*
G01*
X176075000Y-91385000D02*
X177925000Y-91385000D01*
G75*
G02*
X178175000Y-91635000I0J-250000D01*
G01*
X178175000Y-92635000D01*
G75*
G02*
X177925000Y-92885000I-250000J0D01*
G01*
X176075000Y-92885000D01*
G75*
G02*
X175825000Y-92635000I0J250000D01*
G01*
X175825000Y-91635000D01*
G75*
G02*
X176075000Y-91385000I250000J0D01*
G01*
G37*
%TD*%
%TO.C,C31*%
G36*
G01*
X176075000Y-104135000D02*
X177925000Y-104135000D01*
G75*
G02*
X178175000Y-104385000I0J-250000D01*
G01*
X178175000Y-105385000D01*
G75*
G02*
X177925000Y-105635000I-250000J0D01*
G01*
X176075000Y-105635000D01*
G75*
G02*
X175825000Y-105385000I0J250000D01*
G01*
X175825000Y-104385000D01*
G75*
G02*
X176075000Y-104135000I250000J0D01*
G01*
G37*
G36*
G01*
X176075000Y-107385000D02*
X177925000Y-107385000D01*
G75*
G02*
X178175000Y-107635000I0J-250000D01*
G01*
X178175000Y-108635000D01*
G75*
G02*
X177925000Y-108885000I-250000J0D01*
G01*
X176075000Y-108885000D01*
G75*
G02*
X175825000Y-108635000I0J250000D01*
G01*
X175825000Y-107635000D01*
G75*
G02*
X176075000Y-107385000I250000J0D01*
G01*
G37*
%TD*%
%TO.C,C32*%
G36*
G01*
X176075000Y-122885000D02*
X177925000Y-122885000D01*
G75*
G02*
X178175000Y-123135000I0J-250000D01*
G01*
X178175000Y-124135000D01*
G75*
G02*
X177925000Y-124385000I-250000J0D01*
G01*
X176075000Y-124385000D01*
G75*
G02*
X175825000Y-124135000I0J250000D01*
G01*
X175825000Y-123135000D01*
G75*
G02*
X176075000Y-122885000I250000J0D01*
G01*
G37*
G36*
G01*
X176075000Y-119635000D02*
X177925000Y-119635000D01*
G75*
G02*
X178175000Y-119885000I0J-250000D01*
G01*
X178175000Y-120885000D01*
G75*
G02*
X177925000Y-121135000I-250000J0D01*
G01*
X176075000Y-121135000D01*
G75*
G02*
X175825000Y-120885000I0J250000D01*
G01*
X175825000Y-119885000D01*
G75*
G02*
X176075000Y-119635000I250000J0D01*
G01*
G37*
%TD*%
%TO.C,C33*%
G36*
G01*
X190799998Y-92325000D02*
X192100002Y-92325000D01*
G75*
G02*
X192350000Y-92574998I0J-249998D01*
G01*
X192350000Y-93400002D01*
G75*
G02*
X192100002Y-93650000I-249998J0D01*
G01*
X190799998Y-93650000D01*
G75*
G02*
X190550000Y-93400002I0J249998D01*
G01*
X190550000Y-92574998D01*
G75*
G02*
X190799998Y-92325000I249998J0D01*
G01*
G37*
G36*
G01*
X190799998Y-95450000D02*
X192100002Y-95450000D01*
G75*
G02*
X192350000Y-95699998I0J-249998D01*
G01*
X192350000Y-96525002D01*
G75*
G02*
X192100002Y-96775000I-249998J0D01*
G01*
X190799998Y-96775000D01*
G75*
G02*
X190550000Y-96525002I0J249998D01*
G01*
X190550000Y-95699998D01*
G75*
G02*
X190799998Y-95450000I249998J0D01*
G01*
G37*
%TD*%
%TO.C,C34*%
G36*
G01*
X190799998Y-111450000D02*
X192100002Y-111450000D01*
G75*
G02*
X192350000Y-111699998I0J-249998D01*
G01*
X192350000Y-112525002D01*
G75*
G02*
X192100002Y-112775000I-249998J0D01*
G01*
X190799998Y-112775000D01*
G75*
G02*
X190550000Y-112525002I0J249998D01*
G01*
X190550000Y-111699998D01*
G75*
G02*
X190799998Y-111450000I249998J0D01*
G01*
G37*
G36*
G01*
X190799998Y-108325000D02*
X192100002Y-108325000D01*
G75*
G02*
X192350000Y-108574998I0J-249998D01*
G01*
X192350000Y-109400002D01*
G75*
G02*
X192100002Y-109650000I-249998J0D01*
G01*
X190799998Y-109650000D01*
G75*
G02*
X190550000Y-109400002I0J249998D01*
G01*
X190550000Y-108574998D01*
G75*
G02*
X190799998Y-108325000I249998J0D01*
G01*
G37*
%TD*%
%TO.C,C35*%
G36*
G01*
X190799998Y-126950000D02*
X192100002Y-126950000D01*
G75*
G02*
X192350000Y-127199998I0J-249998D01*
G01*
X192350000Y-128025002D01*
G75*
G02*
X192100002Y-128275000I-249998J0D01*
G01*
X190799998Y-128275000D01*
G75*
G02*
X190550000Y-128025002I0J249998D01*
G01*
X190550000Y-127199998D01*
G75*
G02*
X190799998Y-126950000I249998J0D01*
G01*
G37*
G36*
G01*
X190799998Y-123825000D02*
X192100002Y-123825000D01*
G75*
G02*
X192350000Y-124074998I0J-249998D01*
G01*
X192350000Y-124900002D01*
G75*
G02*
X192100002Y-125150000I-249998J0D01*
G01*
X190799998Y-125150000D01*
G75*
G02*
X190550000Y-124900002I0J249998D01*
G01*
X190550000Y-124074998D01*
G75*
G02*
X190799998Y-123825000I249998J0D01*
G01*
G37*
%TD*%
%TO.C,C36*%
G36*
G01*
X194799998Y-95450000D02*
X196100002Y-95450000D01*
G75*
G02*
X196350000Y-95699998I0J-249998D01*
G01*
X196350000Y-96525002D01*
G75*
G02*
X196100002Y-96775000I-249998J0D01*
G01*
X194799998Y-96775000D01*
G75*
G02*
X194550000Y-96525002I0J249998D01*
G01*
X194550000Y-95699998D01*
G75*
G02*
X194799998Y-95450000I249998J0D01*
G01*
G37*
G36*
G01*
X194799998Y-92325000D02*
X196100002Y-92325000D01*
G75*
G02*
X196350000Y-92574998I0J-249998D01*
G01*
X196350000Y-93400002D01*
G75*
G02*
X196100002Y-93650000I-249998J0D01*
G01*
X194799998Y-93650000D01*
G75*
G02*
X194550000Y-93400002I0J249998D01*
G01*
X194550000Y-92574998D01*
G75*
G02*
X194799998Y-92325000I249998J0D01*
G01*
G37*
%TD*%
%TO.C,C37*%
G36*
G01*
X194799998Y-108325000D02*
X196100002Y-108325000D01*
G75*
G02*
X196350000Y-108574998I0J-249998D01*
G01*
X196350000Y-109400002D01*
G75*
G02*
X196100002Y-109650000I-249998J0D01*
G01*
X194799998Y-109650000D01*
G75*
G02*
X194550000Y-109400002I0J249998D01*
G01*
X194550000Y-108574998D01*
G75*
G02*
X194799998Y-108325000I249998J0D01*
G01*
G37*
G36*
G01*
X194799998Y-111450000D02*
X196100002Y-111450000D01*
G75*
G02*
X196350000Y-111699998I0J-249998D01*
G01*
X196350000Y-112525002D01*
G75*
G02*
X196100002Y-112775000I-249998J0D01*
G01*
X194799998Y-112775000D01*
G75*
G02*
X194550000Y-112525002I0J249998D01*
G01*
X194550000Y-111699998D01*
G75*
G02*
X194799998Y-111450000I249998J0D01*
G01*
G37*
%TD*%
%TO.C,C38*%
G36*
G01*
X194799998Y-126950000D02*
X196100002Y-126950000D01*
G75*
G02*
X196350000Y-127199998I0J-249998D01*
G01*
X196350000Y-128025002D01*
G75*
G02*
X196100002Y-128275000I-249998J0D01*
G01*
X194799998Y-128275000D01*
G75*
G02*
X194550000Y-128025002I0J249998D01*
G01*
X194550000Y-127199998D01*
G75*
G02*
X194799998Y-126950000I249998J0D01*
G01*
G37*
G36*
G01*
X194799998Y-123825000D02*
X196100002Y-123825000D01*
G75*
G02*
X196350000Y-124074998I0J-249998D01*
G01*
X196350000Y-124900002D01*
G75*
G02*
X196100002Y-125150000I-249998J0D01*
G01*
X194799998Y-125150000D01*
G75*
G02*
X194550000Y-124900002I0J249998D01*
G01*
X194550000Y-124074998D01*
G75*
G02*
X194799998Y-123825000I249998J0D01*
G01*
G37*
%TD*%
%TO.C,C39*%
G36*
G01*
X142530000Y-115339998D02*
X142530000Y-116640002D01*
G75*
G02*
X142280002Y-116890000I-249998J0D01*
G01*
X141454998Y-116890000D01*
G75*
G02*
X141205000Y-116640002I0J249998D01*
G01*
X141205000Y-115339998D01*
G75*
G02*
X141454998Y-115090000I249998J0D01*
G01*
X142280002Y-115090000D01*
G75*
G02*
X142530000Y-115339998I0J-249998D01*
G01*
G37*
G36*
G01*
X145655000Y-115339998D02*
X145655000Y-116640002D01*
G75*
G02*
X145405002Y-116890000I-249998J0D01*
G01*
X144579998Y-116890000D01*
G75*
G02*
X144330000Y-116640002I0J249998D01*
G01*
X144330000Y-115339998D01*
G75*
G02*
X144579998Y-115090000I249998J0D01*
G01*
X145405002Y-115090000D01*
G75*
G02*
X145655000Y-115339998I0J-249998D01*
G01*
G37*
%TD*%
%TO.C,C40*%
G36*
G01*
X142550000Y-119349998D02*
X142550000Y-120650002D01*
G75*
G02*
X142300002Y-120900000I-249998J0D01*
G01*
X141474998Y-120900000D01*
G75*
G02*
X141225000Y-120650002I0J249998D01*
G01*
X141225000Y-119349998D01*
G75*
G02*
X141474998Y-119100000I249998J0D01*
G01*
X142300002Y-119100000D01*
G75*
G02*
X142550000Y-119349998I0J-249998D01*
G01*
G37*
G36*
G01*
X145675000Y-119349998D02*
X145675000Y-120650002D01*
G75*
G02*
X145425002Y-120900000I-249998J0D01*
G01*
X144599998Y-120900000D01*
G75*
G02*
X144350000Y-120650002I0J249998D01*
G01*
X144350000Y-119349998D01*
G75*
G02*
X144599998Y-119100000I249998J0D01*
G01*
X145425002Y-119100000D01*
G75*
G02*
X145675000Y-119349998I0J-249998D01*
G01*
G37*
%TD*%
%TO.C,C41*%
G36*
G01*
X145675000Y-123349998D02*
X145675000Y-124650002D01*
G75*
G02*
X145425002Y-124900000I-249998J0D01*
G01*
X144599998Y-124900000D01*
G75*
G02*
X144350000Y-124650002I0J249998D01*
G01*
X144350000Y-123349998D01*
G75*
G02*
X144599998Y-123100000I249998J0D01*
G01*
X145425002Y-123100000D01*
G75*
G02*
X145675000Y-123349998I0J-249998D01*
G01*
G37*
G36*
G01*
X142550000Y-123349998D02*
X142550000Y-124650002D01*
G75*
G02*
X142300002Y-124900000I-249998J0D01*
G01*
X141474998Y-124900000D01*
G75*
G02*
X141225000Y-124650002I0J249998D01*
G01*
X141225000Y-123349998D01*
G75*
G02*
X141474998Y-123100000I249998J0D01*
G01*
X142300002Y-123100000D01*
G75*
G02*
X142550000Y-123349998I0J-249998D01*
G01*
G37*
%TD*%
%TO.C,C42*%
G36*
G01*
X73775000Y-84425001D02*
X73775000Y-83574999D01*
G75*
G02*
X74024999Y-83325000I249999J0D01*
G01*
X75100001Y-83325000D01*
G75*
G02*
X75350000Y-83574999I0J-249999D01*
G01*
X75350000Y-84425001D01*
G75*
G02*
X75100001Y-84675000I-249999J0D01*
G01*
X74024999Y-84675000D01*
G75*
G02*
X73775000Y-84425001I0J249999D01*
G01*
G37*
G36*
G01*
X76650000Y-84425001D02*
X76650000Y-83574999D01*
G75*
G02*
X76899999Y-83325000I249999J0D01*
G01*
X77975001Y-83325000D01*
G75*
G02*
X78225000Y-83574999I0J-249999D01*
G01*
X78225000Y-84425001D01*
G75*
G02*
X77975001Y-84675000I-249999J0D01*
G01*
X76899999Y-84675000D01*
G75*
G02*
X76650000Y-84425001I0J249999D01*
G01*
G37*
%TD*%
%TO.C,C43*%
G36*
G01*
X187740000Y-70630000D02*
X185740000Y-70630000D01*
G75*
G02*
X185490000Y-70380000I0J250000D01*
G01*
X185490000Y-66480000D01*
G75*
G02*
X185740000Y-66230000I250000J0D01*
G01*
X187740000Y-66230000D01*
G75*
G02*
X187990000Y-66480000I0J-250000D01*
G01*
X187990000Y-70380000D01*
G75*
G02*
X187740000Y-70630000I-250000J0D01*
G01*
G37*
G36*
G01*
X187740000Y-79030000D02*
X185740000Y-79030000D01*
G75*
G02*
X185490000Y-78780000I0J250000D01*
G01*
X185490000Y-74880000D01*
G75*
G02*
X185740000Y-74630000I250000J0D01*
G01*
X187740000Y-74630000D01*
G75*
G02*
X187990000Y-74880000I0J-250000D01*
G01*
X187990000Y-78780000D01*
G75*
G02*
X187740000Y-79030000I-250000J0D01*
G01*
G37*
%TD*%
%TO.C,C44*%
G36*
G01*
X73775000Y-137425001D02*
X73775000Y-136574999D01*
G75*
G02*
X74024999Y-136325000I249999J0D01*
G01*
X75100001Y-136325000D01*
G75*
G02*
X75350000Y-136574999I0J-249999D01*
G01*
X75350000Y-137425001D01*
G75*
G02*
X75100001Y-137675000I-249999J0D01*
G01*
X74024999Y-137675000D01*
G75*
G02*
X73775000Y-137425001I0J249999D01*
G01*
G37*
G36*
G01*
X76650000Y-137425001D02*
X76650000Y-136574999D01*
G75*
G02*
X76899999Y-136325000I249999J0D01*
G01*
X77975001Y-136325000D01*
G75*
G02*
X78225000Y-136574999I0J-249999D01*
G01*
X78225000Y-137425001D01*
G75*
G02*
X77975001Y-137675000I-249999J0D01*
G01*
X76899999Y-137675000D01*
G75*
G02*
X76650000Y-137425001I0J249999D01*
G01*
G37*
%TD*%
%TO.C,C45*%
G36*
G01*
X199000000Y-70630000D02*
X197000000Y-70630000D01*
G75*
G02*
X196750000Y-70380000I0J250000D01*
G01*
X196750000Y-66480000D01*
G75*
G02*
X197000000Y-66230000I250000J0D01*
G01*
X199000000Y-66230000D01*
G75*
G02*
X199250000Y-66480000I0J-250000D01*
G01*
X199250000Y-70380000D01*
G75*
G02*
X199000000Y-70630000I-250000J0D01*
G01*
G37*
G36*
G01*
X199000000Y-79030000D02*
X197000000Y-79030000D01*
G75*
G02*
X196750000Y-78780000I0J250000D01*
G01*
X196750000Y-74880000D01*
G75*
G02*
X197000000Y-74630000I250000J0D01*
G01*
X199000000Y-74630000D01*
G75*
G02*
X199250000Y-74880000I0J-250000D01*
G01*
X199250000Y-78780000D01*
G75*
G02*
X199000000Y-79030000I-250000J0D01*
G01*
G37*
%TD*%
%TO.C,C47*%
G36*
G01*
X211200002Y-75550000D02*
X209899998Y-75550000D01*
G75*
G02*
X209650000Y-75300002I0J249998D01*
G01*
X209650000Y-74474998D01*
G75*
G02*
X209899998Y-74225000I249998J0D01*
G01*
X211200002Y-74225000D01*
G75*
G02*
X211450000Y-74474998I0J-249998D01*
G01*
X211450000Y-75300002D01*
G75*
G02*
X211200002Y-75550000I-249998J0D01*
G01*
G37*
G36*
G01*
X211200002Y-78675000D02*
X209899998Y-78675000D01*
G75*
G02*
X209650000Y-78425002I0J249998D01*
G01*
X209650000Y-77599998D01*
G75*
G02*
X209899998Y-77350000I249998J0D01*
G01*
X211200002Y-77350000D01*
G75*
G02*
X211450000Y-77599998I0J-249998D01*
G01*
X211450000Y-78425002D01*
G75*
G02*
X211200002Y-78675000I-249998J0D01*
G01*
G37*
%TD*%
%TO.C,C54*%
G36*
G01*
X179175000Y-84299998D02*
X179175000Y-85600002D01*
G75*
G02*
X178925002Y-85850000I-249998J0D01*
G01*
X178099998Y-85850000D01*
G75*
G02*
X177850000Y-85600002I0J249998D01*
G01*
X177850000Y-84299998D01*
G75*
G02*
X178099998Y-84050000I249998J0D01*
G01*
X178925002Y-84050000D01*
G75*
G02*
X179175000Y-84299998I0J-249998D01*
G01*
G37*
G36*
G01*
X176050000Y-84299998D02*
X176050000Y-85600002D01*
G75*
G02*
X175800002Y-85850000I-249998J0D01*
G01*
X174974998Y-85850000D01*
G75*
G02*
X174725000Y-85600002I0J249998D01*
G01*
X174725000Y-84299998D01*
G75*
G02*
X174974998Y-84050000I249998J0D01*
G01*
X175800002Y-84050000D01*
G75*
G02*
X176050000Y-84299998I0J-249998D01*
G01*
G37*
%TD*%
%TO.C,C56*%
G36*
G01*
X176050000Y-100299998D02*
X176050000Y-101600002D01*
G75*
G02*
X175800002Y-101850000I-249998J0D01*
G01*
X174974998Y-101850000D01*
G75*
G02*
X174725000Y-101600002I0J249998D01*
G01*
X174725000Y-100299998D01*
G75*
G02*
X174974998Y-100050000I249998J0D01*
G01*
X175800002Y-100050000D01*
G75*
G02*
X176050000Y-100299998I0J-249998D01*
G01*
G37*
G36*
G01*
X179175000Y-100299998D02*
X179175000Y-101600002D01*
G75*
G02*
X178925002Y-101850000I-249998J0D01*
G01*
X178099998Y-101850000D01*
G75*
G02*
X177850000Y-101600002I0J249998D01*
G01*
X177850000Y-100299998D01*
G75*
G02*
X178099998Y-100050000I249998J0D01*
G01*
X178925002Y-100050000D01*
G75*
G02*
X179175000Y-100299998I0J-249998D01*
G01*
G37*
%TD*%
%TO.C,C58*%
G36*
G01*
X179175000Y-115799998D02*
X179175000Y-117100002D01*
G75*
G02*
X178925002Y-117350000I-249998J0D01*
G01*
X178099998Y-117350000D01*
G75*
G02*
X177850000Y-117100002I0J249998D01*
G01*
X177850000Y-115799998D01*
G75*
G02*
X178099998Y-115550000I249998J0D01*
G01*
X178925002Y-115550000D01*
G75*
G02*
X179175000Y-115799998I0J-249998D01*
G01*
G37*
G36*
G01*
X176050000Y-115799998D02*
X176050000Y-117100002D01*
G75*
G02*
X175800002Y-117350000I-249998J0D01*
G01*
X174974998Y-117350000D01*
G75*
G02*
X174725000Y-117100002I0J249998D01*
G01*
X174725000Y-115799998D01*
G75*
G02*
X174974998Y-115550000I249998J0D01*
G01*
X175800002Y-115550000D01*
G75*
G02*
X176050000Y-115799998I0J-249998D01*
G01*
G37*
%TD*%
%TO.C,C60*%
G36*
G01*
X73799998Y-59825000D02*
X75100002Y-59825000D01*
G75*
G02*
X75350000Y-60074998I0J-249998D01*
G01*
X75350000Y-60900002D01*
G75*
G02*
X75100002Y-61150000I-249998J0D01*
G01*
X73799998Y-61150000D01*
G75*
G02*
X73550000Y-60900002I0J249998D01*
G01*
X73550000Y-60074998D01*
G75*
G02*
X73799998Y-59825000I249998J0D01*
G01*
G37*
G36*
G01*
X73799998Y-62950000D02*
X75100002Y-62950000D01*
G75*
G02*
X75350000Y-63199998I0J-249998D01*
G01*
X75350000Y-64025002D01*
G75*
G02*
X75100002Y-64275000I-249998J0D01*
G01*
X73799998Y-64275000D01*
G75*
G02*
X73550000Y-64025002I0J249998D01*
G01*
X73550000Y-63199998D01*
G75*
G02*
X73799998Y-62950000I249998J0D01*
G01*
G37*
%TD*%
%TO.C,C61*%
G36*
G01*
X78299998Y-62950000D02*
X79600002Y-62950000D01*
G75*
G02*
X79850000Y-63199998I0J-249998D01*
G01*
X79850000Y-64025002D01*
G75*
G02*
X79600002Y-64275000I-249998J0D01*
G01*
X78299998Y-64275000D01*
G75*
G02*
X78050000Y-64025002I0J249998D01*
G01*
X78050000Y-63199998D01*
G75*
G02*
X78299998Y-62950000I249998J0D01*
G01*
G37*
G36*
G01*
X78299998Y-59825000D02*
X79600002Y-59825000D01*
G75*
G02*
X79850000Y-60074998I0J-249998D01*
G01*
X79850000Y-60900002D01*
G75*
G02*
X79600002Y-61150000I-249998J0D01*
G01*
X78299998Y-61150000D01*
G75*
G02*
X78050000Y-60900002I0J249998D01*
G01*
X78050000Y-60074998D01*
G75*
G02*
X78299998Y-59825000I249998J0D01*
G01*
G37*
%TD*%
%TO.C,C62*%
G36*
G01*
X70425001Y-57225000D02*
X69574999Y-57225000D01*
G75*
G02*
X69325000Y-56975001I0J249999D01*
G01*
X69325000Y-55899999D01*
G75*
G02*
X69574999Y-55650000I249999J0D01*
G01*
X70425001Y-55650000D01*
G75*
G02*
X70675000Y-55899999I0J-249999D01*
G01*
X70675000Y-56975001D01*
G75*
G02*
X70425001Y-57225000I-249999J0D01*
G01*
G37*
G36*
G01*
X70425001Y-54350000D02*
X69574999Y-54350000D01*
G75*
G02*
X69325000Y-54100001I0J249999D01*
G01*
X69325000Y-53024999D01*
G75*
G02*
X69574999Y-52775000I249999J0D01*
G01*
X70425001Y-52775000D01*
G75*
G02*
X70675000Y-53024999I0J-249999D01*
G01*
X70675000Y-54100001D01*
G75*
G02*
X70425001Y-54350000I-249999J0D01*
G01*
G37*
%TD*%
D10*
%TO.C,D1*%
X196500000Y-62450000D03*
X196510000Y-55550000D03*
%TD*%
D11*
%TO.C,D2*%
X190000000Y-62500000D03*
X190000000Y-58500000D03*
%TD*%
D12*
%TO.C,D3*%
X173500000Y-68500000D03*
X177500000Y-68500000D03*
%TD*%
D11*
%TO.C,D4*%
X138000000Y-62500000D03*
X138000000Y-58500000D03*
%TD*%
%TO.C,D5*%
G36*
G01*
X114300000Y-66625000D02*
X114300000Y-65375000D01*
G75*
G02*
X114550000Y-65125000I250000J0D01*
G01*
X115475000Y-65125000D01*
G75*
G02*
X115725000Y-65375000I0J-250000D01*
G01*
X115725000Y-66625000D01*
G75*
G02*
X115475000Y-66875000I-250000J0D01*
G01*
X114550000Y-66875000D01*
G75*
G02*
X114300000Y-66625000I0J250000D01*
G01*
G37*
G36*
G01*
X117275000Y-66625000D02*
X117275000Y-65375000D01*
G75*
G02*
X117525000Y-65125000I250000J0D01*
G01*
X118450000Y-65125000D01*
G75*
G02*
X118700000Y-65375000I0J-250000D01*
G01*
X118700000Y-66625000D01*
G75*
G02*
X118450000Y-66875000I-250000J0D01*
G01*
X117525000Y-66875000D01*
G75*
G02*
X117275000Y-66625000I0J250000D01*
G01*
G37*
%TD*%
%TO.C,D6*%
G36*
G01*
X109775000Y-66625000D02*
X109775000Y-65375000D01*
G75*
G02*
X110025000Y-65125000I250000J0D01*
G01*
X110950000Y-65125000D01*
G75*
G02*
X111200000Y-65375000I0J-250000D01*
G01*
X111200000Y-66625000D01*
G75*
G02*
X110950000Y-66875000I-250000J0D01*
G01*
X110025000Y-66875000D01*
G75*
G02*
X109775000Y-66625000I0J250000D01*
G01*
G37*
G36*
G01*
X106800000Y-66625000D02*
X106800000Y-65375000D01*
G75*
G02*
X107050000Y-65125000I250000J0D01*
G01*
X107975000Y-65125000D01*
G75*
G02*
X108225000Y-65375000I0J-250000D01*
G01*
X108225000Y-66625000D01*
G75*
G02*
X107975000Y-66875000I-250000J0D01*
G01*
X107050000Y-66875000D01*
G75*
G02*
X106800000Y-66625000I0J250000D01*
G01*
G37*
%TD*%
D12*
%TO.C,D7*%
X195500000Y-86500000D03*
X191500000Y-86500000D03*
%TD*%
%TO.C,D8*%
X195500000Y-102500000D03*
X191500000Y-102500000D03*
%TD*%
%TO.C,D9*%
X195500000Y-118000000D03*
X191500000Y-118000000D03*
%TD*%
%TO.C,D10*%
X208500000Y-85000000D03*
X212500000Y-85000000D03*
%TD*%
%TO.C,D11*%
X212500000Y-96000000D03*
X208500000Y-96000000D03*
%TD*%
%TO.C,D12*%
X208500000Y-101000000D03*
X212500000Y-101000000D03*
%TD*%
%TO.C,D13*%
X208500000Y-112000000D03*
X212500000Y-112000000D03*
%TD*%
%TO.C,D14*%
X212500000Y-116500000D03*
X208500000Y-116500000D03*
%TD*%
%TO.C,D15*%
X212500000Y-127500000D03*
X208500000Y-127500000D03*
%TD*%
D11*
%TO.C,D16*%
X206500000Y-74000000D03*
X206500000Y-78000000D03*
%TD*%
%TO.C,D17*%
G36*
G01*
X63275000Y-47625000D02*
X63275000Y-46375000D01*
G75*
G02*
X63525000Y-46125000I250000J0D01*
G01*
X64450000Y-46125000D01*
G75*
G02*
X64700000Y-46375000I0J-250000D01*
G01*
X64700000Y-47625000D01*
G75*
G02*
X64450000Y-47875000I-250000J0D01*
G01*
X63525000Y-47875000D01*
G75*
G02*
X63275000Y-47625000I0J250000D01*
G01*
G37*
G36*
G01*
X60300000Y-47625000D02*
X60300000Y-46375000D01*
G75*
G02*
X60550000Y-46125000I250000J0D01*
G01*
X61475000Y-46125000D01*
G75*
G02*
X61725000Y-46375000I0J-250000D01*
G01*
X61725000Y-47625000D01*
G75*
G02*
X61475000Y-47875000I-250000J0D01*
G01*
X60550000Y-47875000D01*
G75*
G02*
X60300000Y-47625000I0J250000D01*
G01*
G37*
%TD*%
%TO.C,D18*%
G36*
G01*
X60300000Y-73125000D02*
X60300000Y-71875000D01*
G75*
G02*
X60550000Y-71625000I250000J0D01*
G01*
X61475000Y-71625000D01*
G75*
G02*
X61725000Y-71875000I0J-250000D01*
G01*
X61725000Y-73125000D01*
G75*
G02*
X61475000Y-73375000I-250000J0D01*
G01*
X60550000Y-73375000D01*
G75*
G02*
X60300000Y-73125000I0J250000D01*
G01*
G37*
G36*
G01*
X63275000Y-73125000D02*
X63275000Y-71875000D01*
G75*
G02*
X63525000Y-71625000I250000J0D01*
G01*
X64450000Y-71625000D01*
G75*
G02*
X64700000Y-71875000I0J-250000D01*
G01*
X64700000Y-73125000D01*
G75*
G02*
X64450000Y-73375000I-250000J0D01*
G01*
X63525000Y-73375000D01*
G75*
G02*
X63275000Y-73125000I0J250000D01*
G01*
G37*
%TD*%
%TO.C,D19*%
G36*
G01*
X60300000Y-68625000D02*
X60300000Y-67375000D01*
G75*
G02*
X60550000Y-67125000I250000J0D01*
G01*
X61475000Y-67125000D01*
G75*
G02*
X61725000Y-67375000I0J-250000D01*
G01*
X61725000Y-68625000D01*
G75*
G02*
X61475000Y-68875000I-250000J0D01*
G01*
X60550000Y-68875000D01*
G75*
G02*
X60300000Y-68625000I0J250000D01*
G01*
G37*
G36*
G01*
X63275000Y-68625000D02*
X63275000Y-67375000D01*
G75*
G02*
X63525000Y-67125000I250000J0D01*
G01*
X64450000Y-67125000D01*
G75*
G02*
X64700000Y-67375000I0J-250000D01*
G01*
X64700000Y-68625000D01*
G75*
G02*
X64450000Y-68875000I-250000J0D01*
G01*
X63525000Y-68875000D01*
G75*
G02*
X63275000Y-68625000I0J250000D01*
G01*
G37*
%TD*%
%TO.C,FB1*%
G36*
G01*
X177750000Y-36324999D02*
X177750000Y-37725001D01*
G75*
G02*
X177500001Y-37975000I-249999J0D01*
G01*
X176774999Y-37975000D01*
G75*
G02*
X176525000Y-37725001I0J249999D01*
G01*
X176525000Y-36324999D01*
G75*
G02*
X176774999Y-36075000I249999J0D01*
G01*
X177500001Y-36075000D01*
G75*
G02*
X177750000Y-36324999I0J-249999D01*
G01*
G37*
G36*
G01*
X174425000Y-36324999D02*
X174425000Y-37725001D01*
G75*
G02*
X174175001Y-37975000I-249999J0D01*
G01*
X173449999Y-37975000D01*
G75*
G02*
X173200000Y-37725001I0J249999D01*
G01*
X173200000Y-36324999D01*
G75*
G02*
X173449999Y-36075000I249999J0D01*
G01*
X174175001Y-36075000D01*
G75*
G02*
X174425000Y-36324999I0J-249999D01*
G01*
G37*
%TD*%
%TO.C,FB2*%
G36*
G01*
X224750000Y-69175001D02*
X224750000Y-67774999D01*
G75*
G02*
X224999999Y-67525000I249999J0D01*
G01*
X225725001Y-67525000D01*
G75*
G02*
X225975000Y-67774999I0J-249999D01*
G01*
X225975000Y-69175001D01*
G75*
G02*
X225725001Y-69425000I-249999J0D01*
G01*
X224999999Y-69425000D01*
G75*
G02*
X224750000Y-69175001I0J249999D01*
G01*
G37*
G36*
G01*
X228075000Y-69175001D02*
X228075000Y-67774999D01*
G75*
G02*
X228324999Y-67525000I249999J0D01*
G01*
X229050001Y-67525000D01*
G75*
G02*
X229300000Y-67774999I0J-249999D01*
G01*
X229300000Y-69175001D01*
G75*
G02*
X229050001Y-69425000I-249999J0D01*
G01*
X228324999Y-69425000D01*
G75*
G02*
X228075000Y-69175001I0J249999D01*
G01*
G37*
%TD*%
D13*
%TO.C,J5*%
X65700000Y-56900000D03*
X65700000Y-57700000D03*
X65700000Y-58500000D03*
X65700000Y-59300000D03*
X65700000Y-60100000D03*
D14*
X65600000Y-54050000D03*
X60150000Y-54050000D03*
X65600000Y-62950000D03*
X60150000Y-62950000D03*
%TD*%
D15*
%TO.C,Q1*%
X208050000Y-88595000D03*
X208050000Y-89865000D03*
X208050000Y-92405000D03*
X212950000Y-92405000D03*
X212950000Y-91135000D03*
X212950000Y-89865000D03*
X212950000Y-88595000D03*
X208050000Y-91135000D03*
%TD*%
%TO.C,Q2*%
X208050000Y-104595000D03*
X208050000Y-105865000D03*
X208050000Y-108405000D03*
X212950000Y-108405000D03*
X212950000Y-107135000D03*
X212950000Y-105865000D03*
X212950000Y-104595000D03*
X208050000Y-107135000D03*
%TD*%
%TO.C,Q3*%
X208050000Y-122635000D03*
X212950000Y-120095000D03*
X212950000Y-121365000D03*
X212950000Y-122635000D03*
X212950000Y-123905000D03*
X208050000Y-123905000D03*
X208050000Y-121365000D03*
X208050000Y-120095000D03*
%TD*%
%TO.C,R1*%
G36*
G01*
X114300000Y-71815001D02*
X114300000Y-70564999D01*
G75*
G02*
X114549999Y-70315000I249999J0D01*
G01*
X115350001Y-70315000D01*
G75*
G02*
X115600000Y-70564999I0J-249999D01*
G01*
X115600000Y-71815001D01*
G75*
G02*
X115350001Y-72065000I-249999J0D01*
G01*
X114549999Y-72065000D01*
G75*
G02*
X114300000Y-71815001I0J249999D01*
G01*
G37*
G36*
G01*
X117400000Y-71815001D02*
X117400000Y-70564999D01*
G75*
G02*
X117649999Y-70315000I249999J0D01*
G01*
X118450001Y-70315000D01*
G75*
G02*
X118700000Y-70564999I0J-249999D01*
G01*
X118700000Y-71815001D01*
G75*
G02*
X118450001Y-72065000I-249999J0D01*
G01*
X117649999Y-72065000D01*
G75*
G02*
X117400000Y-71815001I0J249999D01*
G01*
G37*
%TD*%
%TO.C,R2*%
G36*
G01*
X101050000Y-65374999D02*
X101050000Y-66625001D01*
G75*
G02*
X100800001Y-66875000I-249999J0D01*
G01*
X99999999Y-66875000D01*
G75*
G02*
X99750000Y-66625001I0J249999D01*
G01*
X99750000Y-65374999D01*
G75*
G02*
X99999999Y-65125000I249999J0D01*
G01*
X100800001Y-65125000D01*
G75*
G02*
X101050000Y-65374999I0J-249999D01*
G01*
G37*
G36*
G01*
X104150000Y-65374999D02*
X104150000Y-66625001D01*
G75*
G02*
X103900001Y-66875000I-249999J0D01*
G01*
X103099999Y-66875000D01*
G75*
G02*
X102850000Y-66625001I0J249999D01*
G01*
X102850000Y-65374999D01*
G75*
G02*
X103099999Y-65125000I249999J0D01*
G01*
X103900001Y-65125000D01*
G75*
G02*
X104150000Y-65374999I0J-249999D01*
G01*
G37*
%TD*%
%TO.C,R3*%
G36*
G01*
X84374999Y-72350000D02*
X85625001Y-72350000D01*
G75*
G02*
X85875000Y-72599999I0J-249999D01*
G01*
X85875000Y-73400001D01*
G75*
G02*
X85625001Y-73650000I-249999J0D01*
G01*
X84374999Y-73650000D01*
G75*
G02*
X84125000Y-73400001I0J249999D01*
G01*
X84125000Y-72599999D01*
G75*
G02*
X84374999Y-72350000I249999J0D01*
G01*
G37*
G36*
G01*
X84374999Y-69250000D02*
X85625001Y-69250000D01*
G75*
G02*
X85875000Y-69499999I0J-249999D01*
G01*
X85875000Y-70300001D01*
G75*
G02*
X85625001Y-70550000I-249999J0D01*
G01*
X84374999Y-70550000D01*
G75*
G02*
X84125000Y-70300001I0J249999D01*
G01*
X84125000Y-69499999D01*
G75*
G02*
X84374999Y-69250000I249999J0D01*
G01*
G37*
%TD*%
%TO.C,R4*%
G36*
G01*
X106800000Y-71815001D02*
X106800000Y-70564999D01*
G75*
G02*
X107049999Y-70315000I249999J0D01*
G01*
X107850001Y-70315000D01*
G75*
G02*
X108100000Y-70564999I0J-249999D01*
G01*
X108100000Y-71815001D01*
G75*
G02*
X107850001Y-72065000I-249999J0D01*
G01*
X107049999Y-72065000D01*
G75*
G02*
X106800000Y-71815001I0J249999D01*
G01*
G37*
G36*
G01*
X109900000Y-71815001D02*
X109900000Y-70564999D01*
G75*
G02*
X110149999Y-70315000I249999J0D01*
G01*
X110950001Y-70315000D01*
G75*
G02*
X111200000Y-70564999I0J-249999D01*
G01*
X111200000Y-71815001D01*
G75*
G02*
X110950001Y-72065000I-249999J0D01*
G01*
X110149999Y-72065000D01*
G75*
G02*
X109900000Y-71815001I0J249999D01*
G01*
G37*
%TD*%
%TO.C,R5*%
G36*
G01*
X182300000Y-85625001D02*
X182300000Y-84374999D01*
G75*
G02*
X182549999Y-84125000I249999J0D01*
G01*
X183350001Y-84125000D01*
G75*
G02*
X183600000Y-84374999I0J-249999D01*
G01*
X183600000Y-85625001D01*
G75*
G02*
X183350001Y-85875000I-249999J0D01*
G01*
X182549999Y-85875000D01*
G75*
G02*
X182300000Y-85625001I0J249999D01*
G01*
G37*
G36*
G01*
X185400000Y-85625001D02*
X185400000Y-84374999D01*
G75*
G02*
X185649999Y-84125000I249999J0D01*
G01*
X186450001Y-84125000D01*
G75*
G02*
X186700000Y-84374999I0J-249999D01*
G01*
X186700000Y-85625001D01*
G75*
G02*
X186450001Y-85875000I-249999J0D01*
G01*
X185649999Y-85875000D01*
G75*
G02*
X185400000Y-85625001I0J249999D01*
G01*
G37*
%TD*%
%TO.C,R6*%
G36*
G01*
X182300000Y-101625001D02*
X182300000Y-100374999D01*
G75*
G02*
X182549999Y-100125000I249999J0D01*
G01*
X183350001Y-100125000D01*
G75*
G02*
X183600000Y-100374999I0J-249999D01*
G01*
X183600000Y-101625001D01*
G75*
G02*
X183350001Y-101875000I-249999J0D01*
G01*
X182549999Y-101875000D01*
G75*
G02*
X182300000Y-101625001I0J249999D01*
G01*
G37*
G36*
G01*
X185400000Y-101625001D02*
X185400000Y-100374999D01*
G75*
G02*
X185649999Y-100125000I249999J0D01*
G01*
X186450001Y-100125000D01*
G75*
G02*
X186700000Y-100374999I0J-249999D01*
G01*
X186700000Y-101625001D01*
G75*
G02*
X186450001Y-101875000I-249999J0D01*
G01*
X185649999Y-101875000D01*
G75*
G02*
X185400000Y-101625001I0J249999D01*
G01*
G37*
%TD*%
%TO.C,R8*%
G36*
G01*
X182300000Y-96625001D02*
X182300000Y-95374999D01*
G75*
G02*
X182549999Y-95125000I249999J0D01*
G01*
X183350001Y-95125000D01*
G75*
G02*
X183600000Y-95374999I0J-249999D01*
G01*
X183600000Y-96625001D01*
G75*
G02*
X183350001Y-96875000I-249999J0D01*
G01*
X182549999Y-96875000D01*
G75*
G02*
X182300000Y-96625001I0J249999D01*
G01*
G37*
G36*
G01*
X185400000Y-96625001D02*
X185400000Y-95374999D01*
G75*
G02*
X185649999Y-95125000I249999J0D01*
G01*
X186450001Y-95125000D01*
G75*
G02*
X186700000Y-95374999I0J-249999D01*
G01*
X186700000Y-96625001D01*
G75*
G02*
X186450001Y-96875000I-249999J0D01*
G01*
X185649999Y-96875000D01*
G75*
G02*
X185400000Y-96625001I0J249999D01*
G01*
G37*
%TD*%
%TO.C,R9*%
G36*
G01*
X185400000Y-112625001D02*
X185400000Y-111374999D01*
G75*
G02*
X185649999Y-111125000I249999J0D01*
G01*
X186450001Y-111125000D01*
G75*
G02*
X186700000Y-111374999I0J-249999D01*
G01*
X186700000Y-112625001D01*
G75*
G02*
X186450001Y-112875000I-249999J0D01*
G01*
X185649999Y-112875000D01*
G75*
G02*
X185400000Y-112625001I0J249999D01*
G01*
G37*
G36*
G01*
X182300000Y-112625001D02*
X182300000Y-111374999D01*
G75*
G02*
X182549999Y-111125000I249999J0D01*
G01*
X183350001Y-111125000D01*
G75*
G02*
X183600000Y-111374999I0J-249999D01*
G01*
X183600000Y-112625001D01*
G75*
G02*
X183350001Y-112875000I-249999J0D01*
G01*
X182549999Y-112875000D01*
G75*
G02*
X182300000Y-112625001I0J249999D01*
G01*
G37*
%TD*%
%TO.C,R10*%
G36*
G01*
X185400000Y-128125001D02*
X185400000Y-126874999D01*
G75*
G02*
X185649999Y-126625000I249999J0D01*
G01*
X186450001Y-126625000D01*
G75*
G02*
X186700000Y-126874999I0J-249999D01*
G01*
X186700000Y-128125001D01*
G75*
G02*
X186450001Y-128375000I-249999J0D01*
G01*
X185649999Y-128375000D01*
G75*
G02*
X185400000Y-128125001I0J249999D01*
G01*
G37*
G36*
G01*
X182300000Y-128125001D02*
X182300000Y-126874999D01*
G75*
G02*
X182549999Y-126625000I249999J0D01*
G01*
X183350001Y-126625000D01*
G75*
G02*
X183600000Y-126874999I0J-249999D01*
G01*
X183600000Y-128125001D01*
G75*
G02*
X183350001Y-128375000I-249999J0D01*
G01*
X182549999Y-128375000D01*
G75*
G02*
X182300000Y-128125001I0J249999D01*
G01*
G37*
%TD*%
%TO.C,R11*%
G36*
G01*
X200625001Y-88700000D02*
X199374999Y-88700000D01*
G75*
G02*
X199125000Y-88450001I0J249999D01*
G01*
X199125000Y-87649999D01*
G75*
G02*
X199374999Y-87400000I249999J0D01*
G01*
X200625001Y-87400000D01*
G75*
G02*
X200875000Y-87649999I0J-249999D01*
G01*
X200875000Y-88450001D01*
G75*
G02*
X200625001Y-88700000I-249999J0D01*
G01*
G37*
G36*
G01*
X200625001Y-85600000D02*
X199374999Y-85600000D01*
G75*
G02*
X199125000Y-85350001I0J249999D01*
G01*
X199125000Y-84549999D01*
G75*
G02*
X199374999Y-84300000I249999J0D01*
G01*
X200625001Y-84300000D01*
G75*
G02*
X200875000Y-84549999I0J-249999D01*
G01*
X200875000Y-85350001D01*
G75*
G02*
X200625001Y-85600000I-249999J0D01*
G01*
G37*
%TD*%
%TO.C,R12*%
G36*
G01*
X200625001Y-93600000D02*
X199374999Y-93600000D01*
G75*
G02*
X199125000Y-93350001I0J249999D01*
G01*
X199125000Y-92549999D01*
G75*
G02*
X199374999Y-92300000I249999J0D01*
G01*
X200625001Y-92300000D01*
G75*
G02*
X200875000Y-92549999I0J-249999D01*
G01*
X200875000Y-93350001D01*
G75*
G02*
X200625001Y-93600000I-249999J0D01*
G01*
G37*
G36*
G01*
X200625001Y-96700000D02*
X199374999Y-96700000D01*
G75*
G02*
X199125000Y-96450001I0J249999D01*
G01*
X199125000Y-95649999D01*
G75*
G02*
X199374999Y-95400000I249999J0D01*
G01*
X200625001Y-95400000D01*
G75*
G02*
X200875000Y-95649999I0J-249999D01*
G01*
X200875000Y-96450001D01*
G75*
G02*
X200625001Y-96700000I-249999J0D01*
G01*
G37*
%TD*%
%TO.C,R13*%
G36*
G01*
X200625001Y-104700000D02*
X199374999Y-104700000D01*
G75*
G02*
X199125000Y-104450001I0J249999D01*
G01*
X199125000Y-103649999D01*
G75*
G02*
X199374999Y-103400000I249999J0D01*
G01*
X200625001Y-103400000D01*
G75*
G02*
X200875000Y-103649999I0J-249999D01*
G01*
X200875000Y-104450001D01*
G75*
G02*
X200625001Y-104700000I-249999J0D01*
G01*
G37*
G36*
G01*
X200625001Y-101600000D02*
X199374999Y-101600000D01*
G75*
G02*
X199125000Y-101350001I0J249999D01*
G01*
X199125000Y-100549999D01*
G75*
G02*
X199374999Y-100300000I249999J0D01*
G01*
X200625001Y-100300000D01*
G75*
G02*
X200875000Y-100549999I0J-249999D01*
G01*
X200875000Y-101350001D01*
G75*
G02*
X200625001Y-101600000I-249999J0D01*
G01*
G37*
%TD*%
%TO.C,R14*%
G36*
G01*
X200625001Y-109600000D02*
X199374999Y-109600000D01*
G75*
G02*
X199125000Y-109350001I0J249999D01*
G01*
X199125000Y-108549999D01*
G75*
G02*
X199374999Y-108300000I249999J0D01*
G01*
X200625001Y-108300000D01*
G75*
G02*
X200875000Y-108549999I0J-249999D01*
G01*
X200875000Y-109350001D01*
G75*
G02*
X200625001Y-109600000I-249999J0D01*
G01*
G37*
G36*
G01*
X200625001Y-112700000D02*
X199374999Y-112700000D01*
G75*
G02*
X199125000Y-112450001I0J249999D01*
G01*
X199125000Y-111649999D01*
G75*
G02*
X199374999Y-111400000I249999J0D01*
G01*
X200625001Y-111400000D01*
G75*
G02*
X200875000Y-111649999I0J-249999D01*
G01*
X200875000Y-112450001D01*
G75*
G02*
X200625001Y-112700000I-249999J0D01*
G01*
G37*
%TD*%
%TO.C,R15*%
G36*
G01*
X200625001Y-120200000D02*
X199374999Y-120200000D01*
G75*
G02*
X199125000Y-119950001I0J249999D01*
G01*
X199125000Y-119149999D01*
G75*
G02*
X199374999Y-118900000I249999J0D01*
G01*
X200625001Y-118900000D01*
G75*
G02*
X200875000Y-119149999I0J-249999D01*
G01*
X200875000Y-119950001D01*
G75*
G02*
X200625001Y-120200000I-249999J0D01*
G01*
G37*
G36*
G01*
X200625001Y-117100000D02*
X199374999Y-117100000D01*
G75*
G02*
X199125000Y-116850001I0J249999D01*
G01*
X199125000Y-116049999D01*
G75*
G02*
X199374999Y-115800000I249999J0D01*
G01*
X200625001Y-115800000D01*
G75*
G02*
X200875000Y-116049999I0J-249999D01*
G01*
X200875000Y-116850001D01*
G75*
G02*
X200625001Y-117100000I-249999J0D01*
G01*
G37*
%TD*%
%TO.C,R16*%
G36*
G01*
X200625001Y-125100000D02*
X199374999Y-125100000D01*
G75*
G02*
X199125000Y-124850001I0J249999D01*
G01*
X199125000Y-124049999D01*
G75*
G02*
X199374999Y-123800000I249999J0D01*
G01*
X200625001Y-123800000D01*
G75*
G02*
X200875000Y-124049999I0J-249999D01*
G01*
X200875000Y-124850001D01*
G75*
G02*
X200625001Y-125100000I-249999J0D01*
G01*
G37*
G36*
G01*
X200625001Y-128200000D02*
X199374999Y-128200000D01*
G75*
G02*
X199125000Y-127950001I0J249999D01*
G01*
X199125000Y-127149999D01*
G75*
G02*
X199374999Y-126900000I249999J0D01*
G01*
X200625001Y-126900000D01*
G75*
G02*
X200875000Y-127149999I0J-249999D01*
G01*
X200875000Y-127950001D01*
G75*
G02*
X200625001Y-128200000I-249999J0D01*
G01*
G37*
%TD*%
%TO.C,R17*%
G36*
G01*
X203374999Y-84300000D02*
X204625001Y-84300000D01*
G75*
G02*
X204875000Y-84549999I0J-249999D01*
G01*
X204875000Y-85350001D01*
G75*
G02*
X204625001Y-85600000I-249999J0D01*
G01*
X203374999Y-85600000D01*
G75*
G02*
X203125000Y-85350001I0J249999D01*
G01*
X203125000Y-84549999D01*
G75*
G02*
X203374999Y-84300000I249999J0D01*
G01*
G37*
G36*
G01*
X203374999Y-87400000D02*
X204625001Y-87400000D01*
G75*
G02*
X204875000Y-87649999I0J-249999D01*
G01*
X204875000Y-88450001D01*
G75*
G02*
X204625001Y-88700000I-249999J0D01*
G01*
X203374999Y-88700000D01*
G75*
G02*
X203125000Y-88450001I0J249999D01*
G01*
X203125000Y-87649999D01*
G75*
G02*
X203374999Y-87400000I249999J0D01*
G01*
G37*
%TD*%
%TO.C,R18*%
G36*
G01*
X203374999Y-103400000D02*
X204625001Y-103400000D01*
G75*
G02*
X204875000Y-103649999I0J-249999D01*
G01*
X204875000Y-104450001D01*
G75*
G02*
X204625001Y-104700000I-249999J0D01*
G01*
X203374999Y-104700000D01*
G75*
G02*
X203125000Y-104450001I0J249999D01*
G01*
X203125000Y-103649999D01*
G75*
G02*
X203374999Y-103400000I249999J0D01*
G01*
G37*
G36*
G01*
X203374999Y-100300000D02*
X204625001Y-100300000D01*
G75*
G02*
X204875000Y-100549999I0J-249999D01*
G01*
X204875000Y-101350001D01*
G75*
G02*
X204625001Y-101600000I-249999J0D01*
G01*
X203374999Y-101600000D01*
G75*
G02*
X203125000Y-101350001I0J249999D01*
G01*
X203125000Y-100549999D01*
G75*
G02*
X203374999Y-100300000I249999J0D01*
G01*
G37*
%TD*%
%TO.C,R20*%
G36*
G01*
X203374999Y-92300000D02*
X204625001Y-92300000D01*
G75*
G02*
X204875000Y-92549999I0J-249999D01*
G01*
X204875000Y-93350001D01*
G75*
G02*
X204625001Y-93600000I-249999J0D01*
G01*
X203374999Y-93600000D01*
G75*
G02*
X203125000Y-93350001I0J249999D01*
G01*
X203125000Y-92549999D01*
G75*
G02*
X203374999Y-92300000I249999J0D01*
G01*
G37*
G36*
G01*
X203374999Y-95400000D02*
X204625001Y-95400000D01*
G75*
G02*
X204875000Y-95649999I0J-249999D01*
G01*
X204875000Y-96450001D01*
G75*
G02*
X204625001Y-96700000I-249999J0D01*
G01*
X203374999Y-96700000D01*
G75*
G02*
X203125000Y-96450001I0J249999D01*
G01*
X203125000Y-95649999D01*
G75*
G02*
X203374999Y-95400000I249999J0D01*
G01*
G37*
%TD*%
%TO.C,R21*%
G36*
G01*
X203374999Y-111400000D02*
X204625001Y-111400000D01*
G75*
G02*
X204875000Y-111649999I0J-249999D01*
G01*
X204875000Y-112450001D01*
G75*
G02*
X204625001Y-112700000I-249999J0D01*
G01*
X203374999Y-112700000D01*
G75*
G02*
X203125000Y-112450001I0J249999D01*
G01*
X203125000Y-111649999D01*
G75*
G02*
X203374999Y-111400000I249999J0D01*
G01*
G37*
G36*
G01*
X203374999Y-108300000D02*
X204625001Y-108300000D01*
G75*
G02*
X204875000Y-108549999I0J-249999D01*
G01*
X204875000Y-109350001D01*
G75*
G02*
X204625001Y-109600000I-249999J0D01*
G01*
X203374999Y-109600000D01*
G75*
G02*
X203125000Y-109350001I0J249999D01*
G01*
X203125000Y-108549999D01*
G75*
G02*
X203374999Y-108300000I249999J0D01*
G01*
G37*
%TD*%
%TO.C,R22*%
G36*
G01*
X203374999Y-126900000D02*
X204625001Y-126900000D01*
G75*
G02*
X204875000Y-127149999I0J-249999D01*
G01*
X204875000Y-127950001D01*
G75*
G02*
X204625001Y-128200000I-249999J0D01*
G01*
X203374999Y-128200000D01*
G75*
G02*
X203125000Y-127950001I0J249999D01*
G01*
X203125000Y-127149999D01*
G75*
G02*
X203374999Y-126900000I249999J0D01*
G01*
G37*
G36*
G01*
X203374999Y-123800000D02*
X204625001Y-123800000D01*
G75*
G02*
X204875000Y-124049999I0J-249999D01*
G01*
X204875000Y-124850001D01*
G75*
G02*
X204625001Y-125100000I-249999J0D01*
G01*
X203374999Y-125100000D01*
G75*
G02*
X203125000Y-124850001I0J249999D01*
G01*
X203125000Y-124049999D01*
G75*
G02*
X203374999Y-123800000I249999J0D01*
G01*
G37*
%TD*%
%TO.C,R23*%
G36*
G01*
X149080000Y-115364999D02*
X149080000Y-116615001D01*
G75*
G02*
X148830001Y-116865000I-249999J0D01*
G01*
X148029999Y-116865000D01*
G75*
G02*
X147780000Y-116615001I0J249999D01*
G01*
X147780000Y-115364999D01*
G75*
G02*
X148029999Y-115115000I249999J0D01*
G01*
X148830001Y-115115000D01*
G75*
G02*
X149080000Y-115364999I0J-249999D01*
G01*
G37*
G36*
G01*
X152180000Y-115364999D02*
X152180000Y-116615001D01*
G75*
G02*
X151930001Y-116865000I-249999J0D01*
G01*
X151129999Y-116865000D01*
G75*
G02*
X150880000Y-116615001I0J249999D01*
G01*
X150880000Y-115364999D01*
G75*
G02*
X151129999Y-115115000I249999J0D01*
G01*
X151930001Y-115115000D01*
G75*
G02*
X152180000Y-115364999I0J-249999D01*
G01*
G37*
%TD*%
%TO.C,R24*%
G36*
G01*
X149090000Y-119374999D02*
X149090000Y-120625001D01*
G75*
G02*
X148840001Y-120875000I-249999J0D01*
G01*
X148039999Y-120875000D01*
G75*
G02*
X147790000Y-120625001I0J249999D01*
G01*
X147790000Y-119374999D01*
G75*
G02*
X148039999Y-119125000I249999J0D01*
G01*
X148840001Y-119125000D01*
G75*
G02*
X149090000Y-119374999I0J-249999D01*
G01*
G37*
G36*
G01*
X152190000Y-119374999D02*
X152190000Y-120625001D01*
G75*
G02*
X151940001Y-120875000I-249999J0D01*
G01*
X151139999Y-120875000D01*
G75*
G02*
X150890000Y-120625001I0J249999D01*
G01*
X150890000Y-119374999D01*
G75*
G02*
X151139999Y-119125000I249999J0D01*
G01*
X151940001Y-119125000D01*
G75*
G02*
X152190000Y-119374999I0J-249999D01*
G01*
G37*
%TD*%
%TO.C,R25*%
G36*
G01*
X149100000Y-123374999D02*
X149100000Y-124625001D01*
G75*
G02*
X148850001Y-124875000I-249999J0D01*
G01*
X148049999Y-124875000D01*
G75*
G02*
X147800000Y-124625001I0J249999D01*
G01*
X147800000Y-123374999D01*
G75*
G02*
X148049999Y-123125000I249999J0D01*
G01*
X148850001Y-123125000D01*
G75*
G02*
X149100000Y-123374999I0J-249999D01*
G01*
G37*
G36*
G01*
X152200000Y-123374999D02*
X152200000Y-124625001D01*
G75*
G02*
X151950001Y-124875000I-249999J0D01*
G01*
X151149999Y-124875000D01*
G75*
G02*
X150900000Y-124625001I0J249999D01*
G01*
X150900000Y-123374999D01*
G75*
G02*
X151149999Y-123125000I249999J0D01*
G01*
X151950001Y-123125000D01*
G75*
G02*
X152200000Y-123374999I0J-249999D01*
G01*
G37*
%TD*%
%TO.C,R26*%
G36*
G01*
X69374999Y-59800000D02*
X70625001Y-59800000D01*
G75*
G02*
X70875000Y-60049999I0J-249999D01*
G01*
X70875000Y-60850001D01*
G75*
G02*
X70625001Y-61100000I-249999J0D01*
G01*
X69374999Y-61100000D01*
G75*
G02*
X69125000Y-60850001I0J249999D01*
G01*
X69125000Y-60049999D01*
G75*
G02*
X69374999Y-59800000I249999J0D01*
G01*
G37*
G36*
G01*
X69374999Y-62900000D02*
X70625001Y-62900000D01*
G75*
G02*
X70875000Y-63149999I0J-249999D01*
G01*
X70875000Y-63950001D01*
G75*
G02*
X70625001Y-64200000I-249999J0D01*
G01*
X69374999Y-64200000D01*
G75*
G02*
X69125000Y-63950001I0J249999D01*
G01*
X69125000Y-63149999D01*
G75*
G02*
X69374999Y-62900000I249999J0D01*
G01*
G37*
%TD*%
D16*
%TO.C,SW2*%
X160975000Y-147000000D03*
X169025000Y-147000000D03*
%TD*%
%TO.C,SW3*%
X183025000Y-147000000D03*
X174975000Y-147000000D03*
%TD*%
%TO.C,SW4*%
X197025000Y-147000000D03*
X188975000Y-147000000D03*
%TD*%
%TO.C,SW5*%
X202975000Y-147000000D03*
X211025000Y-147000000D03*
%TD*%
D17*
%TO.C,SW6*%
X83600000Y-64000000D03*
X88400000Y-64000000D03*
%TD*%
D18*
%TO.C,SW7*%
X90500000Y-74250000D03*
X93000000Y-74250000D03*
X95500000Y-74250000D03*
X95500000Y-68750000D03*
X93000000Y-68750000D03*
X90500000Y-68750000D03*
%TD*%
D19*
%TO.C,U1*%
X129300000Y-57150000D03*
X127000000Y-57150000D03*
X124700000Y-57150000D03*
D20*
X127000000Y-50850000D03*
%TD*%
D21*
%TO.C,U2*%
X166775000Y-61900000D03*
X166775000Y-60200000D03*
X166775000Y-58500000D03*
X166775000Y-56800000D03*
X166775000Y-55100000D03*
D22*
X155200000Y-55725000D03*
X160050000Y-61275000D03*
X155200000Y-61275000D03*
X160050000Y-55725000D03*
%TD*%
D23*
%TO.C,U3*%
X135600000Y-52775000D03*
X137300000Y-52775000D03*
X139000000Y-52775000D03*
X140700000Y-52775000D03*
X142400000Y-52775000D03*
D24*
X141775000Y-41200000D03*
X136225000Y-46050000D03*
X136225000Y-41200000D03*
X141775000Y-46050000D03*
%TD*%
D15*
%TO.C,U5*%
X182050000Y-91135000D03*
X186950000Y-88595000D03*
X186950000Y-89865000D03*
X186950000Y-91135000D03*
X186950000Y-92405000D03*
X182050000Y-92405000D03*
X182050000Y-89865000D03*
X182050000Y-88595000D03*
%TD*%
%TO.C,U6*%
X182050000Y-107135000D03*
X186950000Y-104595000D03*
X186950000Y-105865000D03*
X186950000Y-107135000D03*
X186950000Y-108405000D03*
X182050000Y-108405000D03*
X182050000Y-105865000D03*
X182050000Y-104595000D03*
%TD*%
%TO.C,U7*%
X182050000Y-120095000D03*
X182050000Y-121365000D03*
X182050000Y-123905000D03*
X186950000Y-123905000D03*
X186950000Y-122635000D03*
X186950000Y-121365000D03*
X186950000Y-120095000D03*
X182050000Y-122635000D03*
%TD*%
D25*
%TO.C,U8*%
X148380000Y-110495000D03*
X148380000Y-111145000D03*
X148380000Y-111795000D03*
X148380000Y-112445000D03*
X144980000Y-112445000D03*
X144980000Y-111795000D03*
X144980000Y-111145000D03*
X144980000Y-110495000D03*
%TD*%
D26*
%TO.C,U10*%
X77238500Y-72500000D03*
D27*
X72500000Y-74238500D03*
D26*
X70761500Y-69500000D03*
D27*
X75500000Y-67761500D03*
X75000000Y-67761500D03*
X74500000Y-67761500D03*
X74000000Y-67761500D03*
X73500000Y-67761500D03*
X73000000Y-67761500D03*
X72500000Y-67761500D03*
D26*
X70761500Y-70000000D03*
X70761500Y-70500000D03*
X70761500Y-71000000D03*
X70761500Y-71500000D03*
X70761500Y-72000000D03*
X70761500Y-72500000D03*
D27*
X73000000Y-74238500D03*
X73500000Y-74238500D03*
X74000000Y-74238500D03*
X74500000Y-74238500D03*
X75000000Y-74238500D03*
X75500000Y-74238500D03*
D26*
X77238500Y-72000000D03*
X77238500Y-71500000D03*
X77238500Y-71000000D03*
X77238500Y-70500000D03*
X77238500Y-70000000D03*
X77238500Y-69500000D03*
D28*
X74000000Y-71000000D03*
%TD*%
M02*
